<svg width="336" height="42" viewBox="0 0 336 42" fill="none" xmlns="http://www.w3.org/2000/svg">
<path d="M43.7527 0H46.745C50.9557 0.228713 55.4443 0.99802 58.8 3.6802C61.4718 5.80099 62.6046 9.39802 61.942 12.6624C61.4504 15.0743 60.2962 17.3198 59.0565 19.4614C56.5557 23.6822 53.4565 27.5495 50.5282 31.5208C49.9939 32.1653 49.5878 32.9762 49.6305 33.8287C49.6947 34.4941 50.229 35.0347 50.8489 35.2842C52.0458 35.7624 53.3924 35.6584 54.6534 35.596C58.6718 35.1802 62.5405 33.995 66.3664 32.8099C66.6443 32.6436 66.7511 32.9347 66.858 33.1426C62.7969 35.7624 58.4153 37.9663 53.8198 39.5881C51.2763 40.4198 48.5832 41.2099 45.8687 40.898C44.458 40.7525 43.026 39.9416 42.5771 38.5485C42.0214 36.7604 42.2351 34.7644 43.026 33.0594C44.2443 30.398 46.1466 28.1317 47.9206 25.8238C50.8916 22.0396 53.9481 18.2762 56.2779 14.0554C57.0687 12.5792 57.8809 10.7495 57.1115 9.10693C56.4061 7.58911 54.8244 6.69505 53.3282 6.00891C50.6779 4.86535 47.8351 4.15842 45.0351 3.38911C44.6076 3.66634 44.1873 3.93663 43.774 4.2C44.7359 4.92772 45.7191 5.65545 46.6809 6.38317C43.0046 7.02772 39.3282 7.75545 35.6947 8.6495C30.1802 10.001 24.7939 11.7891 19.4504 13.6604C19.9634 14.6792 20.4977 15.698 20.9893 16.7168C19.771 18.0267 18.574 19.3366 17.3771 20.6257C20.2626 21.4782 23.4046 21.603 26.3542 20.9584C28.8763 20.397 31.2702 19.2327 33.1939 17.5485C32.6595 16.904 31.9969 16.3842 31.2916 15.9683C33.6427 16.0307 35.7802 18.0059 35.7802 20.3347C35.3242 20.3347 34.8682 20.3347 34.4122 20.3347C34.3125 19.8356 34.17 19.3436 33.9847 18.8584C31.313 21.2079 27.8718 22.6842 24.3023 23.0584C21.1603 23.4119 17.9542 22.996 14.9832 21.9149C15.1969 23.6891 15.3964 25.4634 15.5817 27.2376C13.8931 27.8822 12.3328 28.797 10.9435 29.9198C9.83206 30.8554 8.72061 31.9366 8.3145 33.3505C7.88702 34.598 8.57099 36.0119 9.68244 36.6772C11.029 37.4881 12.6107 37.8832 14.1924 38.0911C16.2443 38.3614 18.3389 38.3406 20.4122 38.195C24.4733 37.904 28.513 37.1554 32.4672 36.2198C32.8519 36.0743 33.0443 36.698 32.6382 36.802C29.4748 38.3822 26.1832 39.7129 22.7206 40.5653C19.4931 41.397 16.1588 41.8129 12.8031 41.9168C9.40458 41.8129 5.77099 41.1683 3.07786 39.0059C1.0687 37.4257 0 34.9099 0 32.4148V32.2901C0.0641221 29.6495 0.983206 27.0921 2.3084 24.8257C4.03969 21.603 6.1771 18.5881 8.69924 15.9059C13.0595 11.2069 18.5313 7.58911 24.4092 4.96931C30.5221 2.28713 37.0412 0.353465 43.7527 0Z" fill="white"/>
<path fill-rule="evenodd" clip-rule="evenodd" d="M96.2045 1.30985C101.049 1.30985 105.894 1.30292 110.739 1.28906C117.13 14.3465 123.521 27.4039 129.89 40.4613C125.059 40.4613 120.208 40.4613 115.377 40.4613C114.394 38.1049 113.403 35.7485 112.406 33.392C105.737 33.392 99.0686 33.392 92.3999 33.392C91.3455 35.7485 90.2839 38.1049 89.2152 40.4613C84.8549 40.4613 80.4946 40.4613 76.1343 40.4613C79.2121 34.4524 82.3114 28.4643 85.3679 22.4554C88.9801 15.3861 92.6137 8.35837 96.2045 1.30985ZM102.766 10.6663C100.586 15.393 98.406 20.1128 96.2259 24.8257C100.472 24.8257 104.711 24.8257 108.943 24.8257C106.892 20.1059 104.818 15.3861 102.766 10.6663ZM133.545 1.30985C137.777 1.30985 142.002 1.30985 146.22 1.30985C146.22 14.3534 146.22 27.4039 146.22 40.4613C142.002 40.4613 137.777 40.4613 133.545 40.4613C133.545 27.4039 133.545 14.3534 133.545 1.30985ZM154.171 1.30985C158.403 1.30985 162.635 1.30985 166.867 1.30985C166.867 3.9158 166.867 6.52174 166.867 9.12768C162.635 9.12768 158.403 9.12768 154.171 9.12768C154.171 6.52174 154.171 3.9158 154.171 1.30985ZM174.861 1.35144C179.008 1.33758 183.154 1.33758 187.301 1.35144C187.301 6.66035 187.301 11.9623 187.301 17.2574C189.695 14.7207 192.965 12.9118 196.534 12.5584C199.762 12.2673 203.182 12.7871 205.939 14.5336C207.2 15.3029 208.333 16.3217 209.273 17.4445C211.218 20.0851 212.351 23.3079 212.437 26.5514C212.522 29.2544 212.137 32.0406 210.791 34.4316C209.914 36.0118 208.675 37.4049 207.221 38.4861C204.742 40.191 201.707 41.2099 198.65 41.1267C195.786 41.1059 192.879 40.3366 190.528 38.7148C189.246 37.8415 188.156 36.7604 187.172 35.5752C187.172 37.2108 187.172 38.8396 187.172 40.4613C183.069 40.4613 178.965 40.4613 174.861 40.4613C174.847 27.4178 174.847 14.3811 174.861 1.35144ZM191.896 19.0455C190.186 19.4198 188.711 20.6257 188.006 22.1851C187.429 23.5574 187.237 25.0544 187.194 26.5306C187.215 28.5059 187.514 30.6475 188.882 32.2277C189.801 33.4336 191.362 33.9326 192.815 34.1613C194.717 34.4316 196.598 33.5792 197.859 32.2069C199.014 31.1465 199.463 29.6079 199.698 28.1108C199.89 26.4891 199.826 24.7841 199.292 23.2247C198.843 21.8316 197.988 20.5009 196.705 19.7316C195.273 18.8792 193.499 18.6712 191.896 19.0455ZM259.011 1.35144C263.157 1.33758 267.304 1.33758 271.45 1.35144C271.45 6.66035 271.457 11.9623 271.472 17.2574C273.524 15.095 276.217 13.4108 279.23 12.7871C282.03 12.2049 285.023 12.4336 287.716 13.3693C290.772 14.492 293.38 16.7584 294.769 19.6277C296.608 23.0376 296.992 27.0505 296.266 30.793C295.774 33.3505 294.427 35.7415 292.504 37.5505C290.324 39.5673 287.395 40.7524 284.424 41.0643C281.346 41.3346 278.119 40.794 275.469 39.193C273.866 38.2574 272.498 36.9891 271.322 35.5752C271.343 37.2178 271.343 38.8396 271.343 40.4613C267.211 40.4613 263.086 40.4613 258.968 40.4613C258.968 35.7207 258.968 30.9732 258.968 26.2188C259.032 17.9227 259.011 9.62669 259.011 1.35144ZM276.067 19.0455C274.229 19.4198 272.69 20.792 272.049 22.497C271.536 23.8485 271.365 25.2623 271.343 26.697C271.408 28.3396 271.6 30.0445 272.498 31.4792C273.011 32.2485 273.609 32.997 274.485 33.392C275.832 34.0366 277.392 34.4108 278.888 34.0782C280.556 33.7039 281.924 32.5188 282.864 31.1673C284.082 28.8594 284.232 26.1148 283.569 23.6198C283.185 22.1435 282.372 20.7297 281.069 19.8564C279.615 18.9 277.756 18.6504 276.067 19.0455ZM227.548 12.8703C230.84 12.2465 234.238 12.2257 237.572 12.392C240.779 12.6207 244.07 13.099 246.913 14.596C248.324 15.3653 249.606 16.4257 250.418 17.7772C251.359 19.3158 251.701 21.1247 251.722 22.892C251.722 28.7415 251.722 34.5841 251.722 40.4198C247.832 40.4198 243.949 40.4198 240.073 40.4198C240.073 39.0891 240.073 37.7584 240.073 36.4277C238.299 38.7148 235.542 40.0663 232.699 40.5861C229.514 41.1891 226.137 41.2722 222.995 40.3574C221.456 39.8792 219.939 39.1722 218.785 38.0287C217.588 36.8643 216.968 35.2425 216.882 33.6C216.69 31.2712 217.545 28.8594 219.319 27.2168C221.542 25.1584 224.577 24.2227 227.548 23.7029C231.588 23.0376 235.713 22.9544 239.795 22.8505C239.795 21.499 239.411 20.0643 238.363 19.1287C237.38 18.2346 235.969 17.9435 234.644 17.9643C233.511 17.9435 232.293 18.193 231.459 18.9831C230.925 19.5029 230.583 20.1891 230.369 20.8752C226.522 20.8752 222.668 20.8752 218.806 20.8752C219.084 19.1287 219.746 17.4029 220.986 16.0722C222.675 14.2633 225.133 13.3485 227.548 12.8703ZM234.174 28.194C232.827 28.4019 231.395 28.7138 230.369 29.6495C229.194 30.7099 229.258 32.8514 230.605 33.7455C231.609 34.3901 232.849 34.4524 234.003 34.4108C235.606 34.3485 237.337 33.9534 238.427 32.7267C239.624 31.4584 239.859 29.6495 239.838 27.9861C237.936 27.9861 236.055 27.9861 234.174 28.194ZM311.826 12.8495C315.203 12.2257 318.666 12.2257 322.064 12.4128C325.163 12.6415 328.327 13.1405 331.084 14.5752C332.43 15.3029 333.649 16.3217 334.482 17.5901C335.401 18.9623 335.808 20.6257 335.872 22.2683C335.872 28.3118 335.872 34.3623 335.872 40.4198C332.01 40.4198 328.149 40.4198 324.287 40.4198C324.287 39.0891 324.266 37.7376 324.287 36.4069C322.47 38.7564 319.606 40.1079 316.678 40.6277C313.514 41.1891 310.201 41.2722 307.102 40.3158C305.756 39.9 304.452 39.3178 303.362 38.4029C302.165 37.4049 301.374 35.9495 301.16 34.4316C300.861 32.5188 301.139 30.4811 302.186 28.8178C303.298 27.0505 305.114 25.8029 307.059 24.992C309.988 23.7861 313.215 23.4326 316.379 23.1623C318.901 22.9752 321.466 22.9128 324.009 22.8505C323.945 21.5821 323.646 20.2306 322.705 19.2742C321.743 18.297 320.311 17.9643 318.986 17.9643C317.746 17.9435 316.421 18.1722 315.545 19.0871C315.053 19.5861 314.775 20.2306 314.562 20.8752C310.714 20.8752 306.846 20.8752 302.998 20.8752C303.255 19.1703 303.896 17.4861 305.093 16.1762C306.782 14.2633 309.346 13.3485 311.826 12.8495ZM318.302 28.2148C317.02 28.4019 315.652 28.7138 314.647 29.5663C313.386 30.6059 313.408 32.8514 314.818 33.7455C315.887 34.4316 317.255 34.4732 318.495 34.4108C320.033 34.3069 321.637 33.8495 322.662 32.6851C323.795 31.396 324.073 29.6287 323.988 27.9861C322.107 27.9861 320.204 28.0069 318.302 28.2148ZM154.171 13.3069C158.403 13.3069 162.635 13.3069 166.867 13.3069C166.867 22.3584 166.867 31.4099 166.867 40.4613C162.635 40.4613 158.403 40.4613 154.171 40.4613C154.171 31.4099 154.171 22.3584 154.171 13.3069Z" fill="white"/>
</svg>
