<svg width="58" height="100" viewBox="0 0 58 100" fill="none" xmlns="http://www.w3.org/2000/svg">
<g id="cost-saving 1 (Traced)">
<path id="Layer 2" fill-rule="evenodd" clip-rule="evenodd" d="M27.0431 0.24791C25.3527 0.874444 24.0851 2.20212 23.3596 4.10652C23.0009 5.04764 22.8623 5.06578 21.0622 4.40941C17.2931 3.03474 13.1388 5.91837 13.1388 9.90927C13.1388 10.7939 12.9378 11.2345 11.1519 14.2654C9.95802 16.2916 8.97752 17.7328 8.69468 17.8767C8.3968 18.0284 6.88333 18.1371 4.5687 18.1732C1.06956 18.2276 0.893439 18.2498 0.456549 18.6894L0 19.1488V35.3705V51.5922L0.456549 52.0515C0.891433 52.4891 1.09584 52.516 4.76929 52.6186C8.20604 52.7146 9.32755 52.8461 9.32755 53.1528C9.32755 53.2048 8.93961 53.7622 8.46541 54.3915C2.61232 62.1588 0.304098 67.8488 0.301691 74.515C0.297679 85.9521 8.54685 95.8938 20.661 99.0514C23.5373 99.8012 25.3441 100 29.2811 100C35.9935 100 41.1859 98.5416 46.3369 95.2095C54.2966 90.0608 58.775 81.1677 57.8892 72.27C57.342 66.7713 55.3268 62.1154 50.6671 55.5821L48.8389 53.0191L49.4146 52.2201C50.587 50.593 50.7798 47.8701 49.8414 46.1915L49.3849 45.3748L50.0462 44.6176C51.518 42.9324 51.9801 40.6526 51.2745 38.558L50.8536 37.309L51.9244 36.2327C53.2481 34.9018 53.8591 33.4197 53.8591 31.5391C53.8591 29.2828 52.7059 27.0844 50.9503 25.9934L50.2549 25.5615L50.6861 24.7188C51.2875 23.5438 51.4181 21.1574 50.9573 19.7632C50.4296 18.1657 49.2886 16.8634 47.7486 16.1014C46.6299 15.5479 46.1529 15.4366 44.5303 15.3513L42.6253 15.251L43.4457 14.3561C44.6363 13.0579 45.1099 11.8673 45.1131 10.164C45.1179 7.72658 43.8477 5.66025 41.7022 4.6157C40.3215 3.94339 37.9228 3.93673 36.5588 4.60158C35.5661 5.08534 35.0034 5.05489 35.0034 4.51729C35.0034 3.94198 34.0466 2.31061 33.2655 1.55441C32.091 0.417097 30.9631 -0.0126243 29.1862 0.000281405C28.3588 0.00633097 27.3943 0.117643 27.0431 0.24791ZM30.5988 3.86232C31.0702 4.18174 31.405 4.67034 31.7293 5.51244C32.7947 8.2773 34.9988 9.1684 37.699 7.92562C38.5469 7.53542 39.0132 7.43419 39.5225 7.53038C40.4806 7.71086 41.3756 8.53501 41.625 9.46543C41.9387 10.637 41.4829 11.4961 39.4626 13.5416L37.7198 15.3061H29.1864H20.653L18.8236 13.4408C17.8174 12.415 16.8941 11.3773 16.7715 11.1351C16.1942 9.99275 16.8109 8.3503 18.0367 7.7655C18.9526 7.32873 19.3333 7.35514 20.591 7.94376C22.4961 8.83547 24.6821 8.49165 25.7448 7.13332C25.9691 6.84678 26.2995 6.16781 26.4788 5.62476C27.1464 3.60441 29.0294 2.79881 30.5988 3.86232ZM32.3849 18.7342C45.6097 18.8336 45.8145 18.8413 46.3726 19.2569C48.3424 20.7247 48.3139 23.3768 46.316 24.5284C45.5931 24.9451 45.2816 24.9789 42.1646 24.9822C37.931 24.9862 37.4105 25.1881 37.4105 26.8259C37.4105 27.1917 37.6017 27.6157 37.903 27.9184L38.3952 28.4135H43.2383C48.6002 28.4135 48.9721 28.4847 49.8653 29.6815C50.5038 30.5369 50.5543 32.477 49.959 33.2646C48.9699 34.5727 49.0605 34.5546 42.9822 34.6647C37.5439 34.7633 37.4109 34.7756 36.969 35.2202C36.3309 35.8621 36.3399 37.1851 36.9861 37.7111C37.4163 38.0613 37.8424 38.0928 42.1666 38.0928H46.8781L47.4536 38.7123C48.2567 39.5765 48.3883 40.4858 47.8666 41.5691C47.1062 43.1482 46.9629 43.1813 40.3799 43.2936L34.5868 43.3926L34.1934 43.8955C33.6879 44.5414 33.6923 45.3619 34.2042 46.0165L34.6088 46.5333L40.0716 46.5983C45.965 46.668 46.0683 46.6866 46.7148 47.7866C47.2502 48.6979 47.1316 49.5341 46.3569 50.3129L45.6749 50.9985L29.6576 50.9973C18.8868 50.9967 13.3775 50.9253 12.8379 50.7799C12.3966 50.6608 11.4264 50.2849 10.6816 49.9445L9.32755 49.3256V35.3713V21.417L10.1103 21.062C11.2284 20.5553 12.1208 19.5275 13.4455 17.2218C14.0826 16.1127 14.696 15.0865 14.8085 14.9411C14.966 14.7378 15.4683 15.1327 16.9882 16.6551L18.9632 18.6333L32.3849 18.7342ZM5.91748 35.3705V49.1837H4.61363H3.30978V35.3705V21.5573H4.61363H5.91748V35.3705ZM46.9673 56.3998C52.8367 64.4241 55.0093 69.9197 54.5788 75.6519C53.7953 86.087 45.3104 94.5211 33.7411 96.3652C31.6633 96.6963 26.2588 96.6378 24.0029 96.2596C21.5505 95.8484 18.5023 94.8381 16.2191 93.6794C9.62624 90.3336 4.97911 84.2534 3.90734 77.5708C3.52862 75.2101 3.75128 71.32 4.401 68.9456C5.32974 65.5508 7.82291 61.0309 11.3778 56.2969L12.7824 54.4266L29.1585 54.4337L45.5345 54.4407L46.9673 56.3998ZM27.8733 55.5266C27.4697 55.9321 27.3809 56.2217 27.3809 57.132V58.2425L26.5296 58.473C23.4124 59.3167 21.387 61.6996 21.2056 64.7365C21.0869 66.7248 21.4935 67.9942 22.67 69.3097C23.8637 70.6443 25.5336 71.4275 28.7311 72.1522C30.1743 72.4795 31.6571 72.9006 32.0258 73.0881C33.5208 73.8481 34.201 74.861 34.201 76.327C34.201 77.1722 34.1132 77.3599 33.395 78.0465C32.4001 78.9979 30.8656 79.4847 28.9182 79.4662C26.9735 79.4478 25.1942 78.5849 24.3539 77.253C24.033 76.7441 23.7702 76.2216 23.7702 76.0919C23.7702 75.9622 23.5831 75.617 23.3544 75.3248C23.019 74.8961 22.7701 74.7935 22.0652 74.7935C20.9328 74.7935 20.2711 75.5216 20.4161 76.6083C20.7535 79.1387 23.0924 81.5894 26.0241 82.4845L27.3809 82.8989V83.871C27.3809 85.131 27.5095 85.4333 28.1977 85.791C29.0394 86.2286 29.5511 86.1535 30.2046 85.4966C30.6951 85.0035 30.791 84.7434 30.791 83.9073V82.9074L31.7438 82.6676C35.6016 81.6962 37.6221 79.4968 37.6376 76.2518C37.6484 73.9697 36.771 72.1363 35.064 70.8738C33.8217 69.9548 32.4422 69.4344 29.5874 68.807C25.712 67.9555 24.4785 66.9972 24.6288 64.9547C24.7208 63.7024 25.1786 62.9865 26.2965 62.3467C29.0179 60.7887 32.144 61.5834 33.6173 64.2079C34.4038 65.6088 35.4012 65.9625 36.5086 65.2329C37.6861 64.4574 37.0787 62.3719 35.1382 60.5268C33.9798 59.4256 32.9704 58.8323 31.6423 58.473C30.804 58.2461 30.791 58.2288 30.791 57.3524C30.791 56.2324 30.4836 55.5425 29.8568 55.2554C29.0807 54.8999 28.4045 54.9924 27.8733 55.5266Z" fill="white"/>
</g>
</svg>
