<svg width="117" height="100" viewBox="0 0 117 100" fill="none" xmlns="http://www.w3.org/2000/svg">
<g id="handshake 1 (Traced)">
<path id="Layer 1" fill-rule="evenodd" clip-rule="evenodd" d="M93.1735 0.169046C91.5129 0.58802 90.5662 1.31394 85.768 5.84666C80.7078 10.6271 79.3909 11.5688 76.5527 12.4354C75.8615 12.6467 68.9368 13.9277 61.1648 15.2824L47.0334 17.7455L45.4027 17.2115C44.5056 16.9177 42.7924 16.5726 41.5954 16.4447C36.1166 15.8596 35.2176 15.7163 33.6006 15.1715C32.589 14.8308 29.8987 13.4389 27.0818 11.7993C24.4438 10.2637 21.7187 8.81414 21.0261 8.57791C19.3031 7.99042 17.0056 8.13919 15.2365 8.9528C12.6403 10.1468 12.3771 10.566 5.88426 23.835L0 35.861V37.5952C0.000228515 39.9768 0.693314 41.3727 2.60027 42.8321C7.36024 46.4745 8.77292 48.8841 9.61819 54.8009C9.86179 56.5055 10.2685 58.552 10.5222 59.3486L10.9836 60.797L10.4897 62.1579C9.81883 64.0066 9.94634 66.5676 10.7923 68.2315C11.8995 70.409 15.0834 72.9585 17.4201 73.5386L18.8527 73.8942L18.9048 75.2783C18.964 76.8486 19.767 78.8601 20.751 79.9031C21.9569 81.1816 24.2516 82.8641 25.3734 83.2923C26 83.5315 27.0605 83.7273 27.7298 83.7273H28.9467L29.3123 85.0483C29.5134 85.7749 29.9805 86.822 30.3507 87.3757C31.0958 88.4906 33.583 90.5948 35.0464 91.3483C36.1595 91.9216 38.7717 92.1615 40.0479 91.8075C40.5589 91.6658 40.9044 91.6559 40.9044 91.7836C40.9044 92.3534 41.9361 94.0874 42.7972 94.965C45.9653 98.1938 49.4922 99.3435 52.4318 98.1058C53.047 97.8469 53.2008 97.8875 54.2264 98.581C55.8545 99.6819 57.5083 100.102 59.7361 99.9796C62.0119 99.8552 63.3169 99.3081 64.9243 97.8051C66.2197 96.5939 67.3031 94.6005 67.5442 92.9854C67.6843 92.048 67.7234 92.0051 68.2946 92.1663C68.6262 92.2599 69.8255 92.3364 70.9596 92.3364C72.8298 92.3364 73.1638 92.2661 74.5491 91.5806C76.7904 90.4716 78.6098 88.1113 78.9706 85.8443C79.1882 84.4769 79.2912 84.3887 80.333 84.6776C81.7409 85.0683 84.2596 84.8132 85.7459 84.1296C88.2337 82.9854 90.2417 80.3967 90.6231 77.8417C90.7613 76.9156 90.8315 76.8181 91.2636 76.9505C91.5305 77.0322 92.4251 77.1569 93.2514 77.2272C96.9806 77.5449 100.484 75.2296 101.826 71.5599C102.39 70.0192 102.337 67.1787 101.714 65.5554C101.041 63.8026 100.136 62.7222 97.6373 60.6886L95.5275 58.9718L97.7728 56.1403C101.768 51.1018 103.386 49.8201 109.863 46.5629C114.382 44.2905 115.46 43.493 116.315 41.7909C116.961 40.5074 117.208 37.8074 116.804 36.4535C116.667 35.9939 113.015 28.3379 108.69 19.4398C103.524 8.81299 100.541 2.93198 99.9979 2.30157C98.4776 0.536366 95.4575 -0.407416 93.1735 0.169046ZM95.8124 4.37761C96.2169 4.54956 96.715 4.88543 96.9193 5.12373C97.1236 5.36202 100.76 12.6855 105.001 21.3978C110.724 33.1564 112.737 37.5048 112.811 38.2716C112.991 40.1114 112.585 40.4752 107.465 43.0664C100.954 46.362 98.9481 47.9626 94.7736 53.1939C93.5142 54.7722 92.4027 56.0955 92.304 56.1345C92.2053 56.1738 85.8702 51.125 78.2259 44.9152C67.6628 36.3344 63.9433 33.4399 62.7276 32.8538C60.0334 31.5549 56.7307 31.3708 54.3148 32.3848C53.1546 32.872 51.2415 34.7327 50.6277 35.9712C50.3448 36.5419 49.4141 39.8366 48.5594 43.2924C46.8332 50.2714 46.527 50.9397 44.5819 51.9712C41.688 53.5057 37.8393 51.5458 37.3562 48.292C37.2568 47.6212 37.6926 44.5569 38.8304 37.9272C39.7189 32.7503 40.5443 28.1703 40.6647 27.7492C41.2712 25.6277 43.4798 23.2392 45.5428 22.4736C46.1966 22.2309 53.3642 20.8691 61.4707 19.4471C69.5773 18.0251 76.7755 16.7193 77.4668 16.5455C79.206 16.1084 82.6106 14.3799 83.9607 13.2488C84.5791 12.7309 86.8907 10.5924 89.0982 8.49687C92.7542 5.02616 93.9452 4.09959 94.7841 4.07388C94.9452 4.06906 95.4079 4.20566 95.8124 4.37761ZM24.6844 15.2682C29.5664 18.0913 31.3973 18.9579 33.7457 19.5571C35.5265 20.0114 37.9956 20.3546 39.5246 20.3601L40.773 20.3647L39.7175 21.4552C38.2884 22.9318 37.3181 24.5448 36.7824 26.3337C36.192 28.3059 33.1349 46.1572 33.1349 47.6325C33.1349 51.4142 35.8357 55.0998 39.4858 56.2994C41.3683 56.9178 44.5241 56.7041 46.2873 55.8388C47.9246 55.0351 49.7632 53.2458 50.4741 51.7639C50.7607 51.1668 51.6928 47.9008 52.5454 44.5061C53.3982 41.1114 54.2739 38.031 54.4914 37.6609C55.1571 36.5291 56.2355 35.943 57.6532 35.943C59.2802 35.943 60.4406 36.2703 61.7027 37.0853C62.2664 37.4494 70.3885 43.9604 79.7519 51.5543C92.6932 62.05 96.9388 65.6155 97.4536 66.4206C99.7225 69.968 95.8871 74.487 92.0689 72.7656C91.5159 72.5163 90.1507 71.5748 89.0353 70.6735C86.7367 68.816 85.9732 68.6172 84.8542 69.5842C84.3519 70.0183 84.2183 70.3305 84.2183 71.0707C84.2183 71.84 84.3686 72.1625 85.059 72.8742C87.4714 75.3614 86.9533 78.9301 83.9795 80.309C82.0752 81.1919 80.6406 80.8072 78.0877 78.7286C75.0667 76.2689 74.5121 76.1 73.3359 77.2816C72.3103 78.3119 72.4095 79.2871 73.6867 80.7318C74.9531 82.1644 75.3247 83.3726 74.9543 84.8532C74.2543 87.6512 71.4443 89.0594 68.8975 87.8886C68.3947 87.6574 67.411 86.9979 66.711 86.4228C63.7061 83.9535 62.8475 83.6862 61.6817 84.8575C60.6968 85.8472 60.7825 86.6643 62.0178 88.0619C63.2166 89.4178 63.6176 90.5071 63.4737 92.0148C63.2671 94.1732 61.3853 95.8948 59.2324 95.8948C58.2795 95.8948 56.4434 95.3007 56.4434 94.9923C56.4434 94.9021 56.7441 94.2678 57.1116 93.5825C58.9685 90.1187 58.306 85.785 55.5193 83.1663C54.1071 81.8391 52.3763 81.0181 50.5966 80.8315L49.2452 80.6896L49.3231 79.7125C49.3658 79.1751 49.2338 78.0798 49.0295 77.2788C48.1312 73.7562 45.2658 71.2013 41.906 70.9272L40.5082 70.8133L40.3916 68.9363C40.1864 65.6329 38.3496 62.8558 35.474 61.5018C34.3396 60.9678 33.8712 60.8847 31.9923 60.8847C30.1212 60.8847 29.643 60.9687 28.5299 61.493L27.2381 62.1014L26.8494 61.0787C26.2632 59.5371 24.2827 57.5225 22.5734 56.7296C21.2953 56.1366 20.8997 56.0654 18.967 56.0801C16.8678 56.096 16.2995 56.2429 14.3622 57.2705C14.2207 57.3455 14.0948 56.6538 13.4728 52.3904C12.7575 47.4878 10.1593 43.2494 5.94481 40.1104C4.30659 38.8905 4.1135 38.6258 4.1135 37.6007C4.1135 36.9869 14.6471 15.2151 15.6035 13.8524C15.8576 13.4906 16.4869 12.9963 17.002 12.7543C18.6706 11.9706 19.3879 12.2054 24.6844 15.2682ZM20.5168 60.4372C22.5914 61.3064 23.8325 63.6239 23.3003 65.635C22.8949 67.1681 21.4681 68.9138 20.2334 69.3874C19.256 69.7625 19.1365 69.763 18.1854 69.3982C17.6299 69.1849 16.542 68.4218 15.768 67.7026C14.5774 66.5958 14.3416 66.2464 14.2362 65.4325C14.0626 64.0923 14.2543 63.5172 15.3315 62.1482C16.8105 60.2685 18.6587 59.6585 20.5168 60.4372ZM34.3332 65.731C36.1325 67.0044 36.8515 69.533 35.9276 71.3393C35.2448 72.6745 30.1804 78.8861 29.4766 79.2515C28.0383 79.999 26.6624 79.5766 24.6426 77.768C23.1783 76.4569 22.726 75.3651 23.0935 74.0283C23.3309 73.1646 28.2632 66.6447 29.2773 65.8543C30.7403 64.7135 32.8237 64.6628 34.3332 65.731ZM43.2958 75.7854C44.8826 77.0013 45.5279 78.797 45.0257 80.5992C44.6865 81.8166 40.7506 86.8989 39.7141 87.4579C38.6467 88.0337 37.471 87.968 36.4564 87.2763C34.7183 86.0913 34.0053 85.4285 33.5755 84.5974C32.7236 82.9502 33.0522 81.9507 35.4168 78.9963C38.4166 75.2482 38.8354 74.956 41.0484 75.0666C42.1683 75.1224 42.6189 75.2666 43.2958 75.7854ZM51.1377 85.2313C53.6304 86.2756 54.6987 89.0468 53.523 91.4181C52.8482 92.7792 51.8649 93.7937 50.8386 94.1874C49.8779 94.5561 49.7557 94.5564 48.8064 94.1923C48.2509 93.979 47.1584 93.2152 46.3787 92.4948C45.0638 91.2799 44.9532 91.1006 44.8497 90.0195C44.7238 88.7034 45.0343 87.9203 46.2197 86.5642C47.5635 85.0265 49.4371 84.5187 51.1377 85.2313Z" fill="white"/>
<path id="Layer 2" fill-rule="evenodd" clip-rule="evenodd" d="M93.1735 0.169046C91.5129 0.58802 90.5662 1.31394 85.768 5.84666C80.7078 10.6271 79.3909 11.5688 76.5527 12.4354C75.8615 12.6467 68.9368 13.9277 61.1648 15.2824L47.0334 17.7455L45.4027 17.2115C44.5056 16.9177 42.7924 16.5726 41.5954 16.4447C36.1166 15.8596 35.2176 15.7163 33.6006 15.1715C32.589 14.8308 29.8987 13.4389 27.0818 11.7993C24.4438 10.2637 21.7187 8.81414 21.0261 8.57791C19.3031 7.99042 17.0056 8.13919 15.2365 8.9528C12.6403 10.1468 12.3771 10.566 5.88426 23.835L0 35.861V37.5952C0.000228515 39.9768 0.693314 41.3727 2.60027 42.8321C7.36024 46.4745 8.77292 48.8841 9.61819 54.8009C9.86179 56.5055 10.2685 58.552 10.5222 59.3486L10.9836 60.797L10.4897 62.1579C9.81883 64.0066 9.94634 66.5676 10.7923 68.2315C11.8995 70.409 15.0834 72.9585 17.4201 73.5386L18.8527 73.8942L18.9048 75.2783C18.964 76.8486 19.767 78.8601 20.751 79.9031C21.9569 81.1816 24.2516 82.8641 25.3734 83.2923C26 83.5315 27.0605 83.7273 27.7298 83.7273H28.9467L29.3123 85.0483C29.5134 85.7749 29.9805 86.822 30.3507 87.3757C31.0958 88.4906 33.583 90.5948 35.0464 91.3483C36.1595 91.9216 38.7717 92.1615 40.0479 91.8075C40.5589 91.6658 40.9044 91.6559 40.9044 91.7836C40.9044 92.3534 41.9361 94.0874 42.7972 94.965C45.9653 98.1938 49.4922 99.3435 52.4318 98.1058C53.047 97.8469 53.2008 97.8875 54.2264 98.581C55.8545 99.6819 57.5083 100.102 59.7361 99.9796C62.0119 99.8552 63.3169 99.3081 64.9243 97.8051C66.2197 96.5939 67.3031 94.6005 67.5442 92.9854C67.6843 92.048 67.7234 92.0051 68.2946 92.1663C68.6262 92.2599 69.8255 92.3364 70.9596 92.3364C72.8298 92.3364 73.1638 92.2661 74.5491 91.5806C76.7904 90.4716 78.6098 88.1113 78.9706 85.8443C79.1882 84.4769 79.2912 84.3887 80.333 84.6776C81.7409 85.0683 84.2596 84.8132 85.7459 84.1296C88.2337 82.9854 90.2417 80.3967 90.6231 77.8417C90.7613 76.9156 90.8315 76.8181 91.2636 76.9505C91.5305 77.0322 92.4251 77.1569 93.2514 77.2272C96.9806 77.5449 100.484 75.2296 101.826 71.5599C102.39 70.0192 102.337 67.1787 101.714 65.5554C101.041 63.8026 100.136 62.7222 97.6373 60.6886L95.5275 58.9718L97.7728 56.1403C101.768 51.1018 103.386 49.8201 109.863 46.5629C114.382 44.2905 115.46 43.493 116.315 41.7909C116.961 40.5074 117.208 37.8074 116.804 36.4535C116.667 35.9939 113.015 28.3379 108.69 19.4398C103.524 8.81299 100.541 2.93198 99.9979 2.30157C98.4776 0.536366 95.4575 -0.407416 93.1735 0.169046ZM95.8124 4.37761C96.2169 4.54956 96.715 4.88543 96.9193 5.12373C97.1236 5.36202 100.76 12.6855 105.001 21.3978C110.724 33.1564 112.737 37.5048 112.811 38.2716C112.991 40.1114 112.585 40.4752 107.465 43.0664C100.954 46.362 98.9481 47.9626 94.7736 53.1939C93.5142 54.7722 92.4027 56.0955 92.304 56.1345C92.2053 56.1738 85.8702 51.125 78.2259 44.9152C67.6628 36.3344 63.9433 33.4399 62.7276 32.8538C60.0334 31.5549 56.7307 31.3708 54.3148 32.3848C53.1546 32.872 51.2415 34.7327 50.6277 35.9712C50.3448 36.5419 49.4141 39.8366 48.5594 43.2924C46.8332 50.2714 46.527 50.9397 44.5819 51.9712C41.688 53.5057 37.8393 51.5458 37.3562 48.292C37.2568 47.6212 37.6926 44.5569 38.8304 37.9272C39.7189 32.7503 40.5443 28.1703 40.6647 27.7492C41.2712 25.6277 43.4798 23.2392 45.5428 22.4736C46.1966 22.2309 53.3642 20.8691 61.4707 19.4471C69.5773 18.0251 76.7755 16.7193 77.4668 16.5455C79.206 16.1084 82.6106 14.3799 83.9607 13.2488C84.5791 12.7309 86.8907 10.5924 89.0982 8.49687C92.7542 5.02616 93.9452 4.09959 94.7841 4.07388C94.9452 4.06906 95.4079 4.20566 95.8124 4.37761ZM24.6844 15.2682C29.5664 18.0913 31.3973 18.9579 33.7457 19.5571C35.5265 20.0114 37.9956 20.3546 39.5246 20.3601L40.773 20.3647L39.7175 21.4552C38.2884 22.9318 37.3181 24.5448 36.7824 26.3337C36.192 28.3059 33.1349 46.1572 33.1349 47.6325C33.1349 51.4142 35.8357 55.0998 39.4858 56.2994C41.3683 56.9178 44.5241 56.7041 46.2873 55.8388C47.9246 55.0351 49.7632 53.2458 50.4741 51.7639C50.7607 51.1668 51.6928 47.9008 52.5454 44.5061C53.3982 41.1114 54.2739 38.031 54.4914 37.6609C55.1571 36.5291 56.2355 35.943 57.6532 35.943C59.2802 35.943 60.4406 36.2703 61.7027 37.0853C62.2664 37.4494 70.3885 43.9604 79.7519 51.5543C92.6932 62.05 96.9388 65.6155 97.4536 66.4206C99.7225 69.968 95.8871 74.487 92.0689 72.7656C91.5159 72.5163 90.1507 71.5748 89.0353 70.6735C86.7367 68.816 85.9732 68.6172 84.8542 69.5842C84.3519 70.0183 84.2183 70.3305 84.2183 71.0707C84.2183 71.84 84.3686 72.1625 85.059 72.8742C87.4714 75.3614 86.9533 78.9301 83.9795 80.309C82.0752 81.1919 80.6406 80.8072 78.0877 78.7286C75.0667 76.2689 74.5121 76.1 73.3359 77.2816C72.3103 78.3119 72.4095 79.2871 73.6867 80.7318C74.9531 82.1644 75.3247 83.3726 74.9543 84.8532C74.2543 87.6512 71.4443 89.0594 68.8975 87.8886C68.3947 87.6574 67.411 86.9979 66.711 86.4228C63.7061 83.9535 62.8475 83.6862 61.6817 84.8575C60.6968 85.8472 60.7825 86.6643 62.0178 88.0619C63.2166 89.4178 63.6176 90.5071 63.4737 92.0148C63.2671 94.1732 61.3853 95.8948 59.2324 95.8948C58.2795 95.8948 56.4434 95.3007 56.4434 94.9923C56.4434 94.9021 56.7441 94.2678 57.1116 93.5825C58.9685 90.1187 58.306 85.785 55.5193 83.1663C54.1071 81.8391 52.3763 81.0181 50.5966 80.8315L49.2452 80.6896L49.3231 79.7125C49.3658 79.1751 49.2338 78.0798 49.0295 77.2788C48.1312 73.7562 45.2658 71.2013 41.906 70.9272L40.5082 70.8133L40.3916 68.9363C40.1864 65.6329 38.3496 62.8558 35.474 61.5018C34.3396 60.9678 33.8712 60.8847 31.9923 60.8847C30.1212 60.8847 29.643 60.9687 28.5299 61.493L27.2381 62.1014L26.8494 61.0787C26.2632 59.5371 24.2827 57.5225 22.5734 56.7296C21.2953 56.1366 20.8997 56.0654 18.967 56.0801C16.8678 56.096 16.2995 56.2429 14.3622 57.2705C14.2207 57.3455 14.0948 56.6538 13.4728 52.3904C12.7575 47.4878 10.1593 43.2494 5.94481 40.1104C4.30659 38.8905 4.1135 38.6258 4.1135 37.6007C4.1135 36.9869 14.6471 15.2151 15.6035 13.8524C15.8576 13.4906 16.4869 12.9963 17.002 12.7543C18.6706 11.9706 19.3879 12.2054 24.6844 15.2682ZM20.5168 60.4372C22.5914 61.3064 23.8325 63.6239 23.3003 65.635C22.8949 67.1681 21.4681 68.9138 20.2334 69.3874C19.256 69.7625 19.1365 69.763 18.1854 69.3982C17.6299 69.1849 16.542 68.4218 15.768 67.7026C14.5774 66.5958 14.3416 66.2464 14.2362 65.4325C14.0626 64.0923 14.2543 63.5172 15.3315 62.1482C16.8105 60.2685 18.6587 59.6585 20.5168 60.4372ZM34.3332 65.731C36.1325 67.0044 36.8515 69.533 35.9276 71.3393C35.2448 72.6745 30.1804 78.8861 29.4766 79.2515C28.0383 79.999 26.6624 79.5766 24.6426 77.768C23.1783 76.4569 22.726 75.3651 23.0935 74.0283C23.3309 73.1646 28.2632 66.6447 29.2773 65.8543C30.7403 64.7135 32.8237 64.6628 34.3332 65.731ZM43.2958 75.7854C44.8826 77.0013 45.5279 78.797 45.0257 80.5992C44.6865 81.8166 40.7506 86.8989 39.7141 87.4579C38.6467 88.0337 37.471 87.968 36.4564 87.2763C34.7183 86.0913 34.0053 85.4285 33.5755 84.5974C32.7236 82.9502 33.0522 81.9507 35.4168 78.9963C38.4166 75.2482 38.8354 74.956 41.0484 75.0666C42.1683 75.1224 42.6189 75.2666 43.2958 75.7854ZM51.1377 85.2313C53.6304 86.2756 54.6987 89.0468 53.523 91.4181C52.8482 92.7792 51.8649 93.7937 50.8386 94.1874C49.8779 94.5561 49.7557 94.5564 48.8064 94.1923C48.2509 93.979 47.1584 93.2152 46.3787 92.4948C45.0638 91.2799 44.9532 91.1006 44.8497 90.0195C44.7238 88.7034 45.0343 87.9203 46.2197 86.5642C47.5635 85.0265 49.4371 84.5187 51.1377 85.2313Z" fill="white"/>
</g>
</svg>
