<svg width="125" height="62" viewBox="0 0 125 62" fill="none" xmlns="http://www.w3.org/2000/svg">
<path d="M0 38L10.9495 1.9763H19.2056L30.1551 38H23.0316L21.7479 33.5221H8.40717L7.12344 38H0ZM10.0936 27.6682H20.0614L16.6633 15.9105L15.0775 9.85648L13.4917 15.9105L10.0936 27.6682Z" fill="#00AD84"/>
<path d="M34.3586 38V12.3831H41.18V38H34.3586ZM34.7362 6.95458C33.9475 6.17073 33.5532 5.20342 33.5532 4.05267C33.5532 2.90191 33.9475 1.94294 34.7362 1.17577C35.5249 0.391925 36.5485 0 37.8071 0C39.0489 0 40.0557 0.391925 40.8276 1.17577C41.6163 1.94294 42.0107 2.90191 42.0107 4.05267C42.0107 5.20342 41.6163 6.17073 40.8276 6.95458C40.0557 7.72175 39.0489 8.10533 37.8071 8.10533C36.5485 8.10533 35.5249 7.72175 34.7362 6.95458Z" fill="#00AD84"/>
<path d="M46.5415 38L52.0036 1.9763H60.7884L67.2322 21.9394L69.1704 29.0691L71.0834 21.9394L77.5272 1.9763H86.3119L91.7741 38H84.8772L80.9505 10.4569L79.0123 17.8117L72.3671 38H65.9485L59.3033 17.8117L57.3399 10.4068L53.4384 38H46.5415Z" fill="black"/>
<path d="M94.8449 38L105.794 1.9763H114.051L125 38H117.877L116.593 33.5221H103.252L101.968 38H94.8449ZM104.939 27.6682H114.906L111.508 15.9105L109.922 9.85648L108.337 15.9105L104.939 27.6682Z" fill="black"/>
<path d="M4.7005 45.0482V45.5542H0V45.0482H4.7005ZM1.73176 42.1386H2.22655V54.631C2.22655 55.1054 2.32963 55.5139 2.53579 55.8566C2.74196 56.1939 3.01512 56.4548 3.35529 56.6393C3.69546 56.8185 4.0614 56.9081 4.4531 56.9081C4.60257 56.9081 4.73915 56.895 4.86285 56.8686C4.9917 56.8422 5.12313 56.8027 5.25714 56.75L5.41176 57.2244C5.25714 57.2824 5.10509 57.3272 4.95562 57.3588C4.80616 57.3957 4.63865 57.4142 4.4531 57.4142C3.96862 57.4142 3.51764 57.3008 3.10016 57.0742C2.68784 56.8475 2.3554 56.526 2.10285 56.1096C1.85546 55.6931 1.73176 55.2003 1.73176 54.631V42.1386Z" fill="black"/>
<path d="M12.8838 57.4458C11.8479 57.4458 10.9408 57.1691 10.1625 56.6156C9.3894 56.0621 8.78895 55.311 8.36117 54.3622C7.93338 53.4134 7.71949 52.3434 7.71949 51.1521C7.71949 49.9608 7.93338 48.8908 8.36117 47.942C8.79411 46.9932 9.38167 46.2421 10.1239 45.6886C10.866 45.1352 11.7036 44.8584 12.6365 44.8584C13.3271 44.8584 13.9662 45.0087 14.5538 45.3091C15.1465 45.6096 15.6619 46.026 16.1 46.5584C16.5381 47.0907 16.8782 47.7048 17.1205 48.4006C17.3679 49.0911 17.4916 49.8291 17.4916 50.6145V51.1205H7.96688V50.6145H16.9968C16.9968 49.6393 16.8009 48.7564 16.4092 47.9657C16.0175 47.1698 15.4918 46.5373 14.8321 46.0681C14.1724 45.599 13.4405 45.3645 12.6365 45.3645C11.8221 45.3645 11.0851 45.6122 10.4254 46.1077C9.76565 46.6032 9.23736 47.2779 8.84049 48.1318C8.44363 48.9857 8.23489 49.9503 8.21428 51.0256V51.0889C8.21428 52.1483 8.39467 53.1235 8.75545 54.0143C9.12139 54.8998 9.65226 55.6088 10.3481 56.1412C11.0439 56.6736 11.8891 56.9398 12.8838 56.9398C13.6157 56.9398 14.2291 56.808 14.7238 56.5444C15.2238 56.2809 15.6232 55.9778 15.9222 55.6352C16.2263 55.2925 16.4505 55 16.5948 54.7575L16.9968 55.0422C16.8215 55.3479 16.5587 55.6879 16.2082 56.0621C15.8577 56.4364 15.4093 56.7605 14.863 57.0346C14.3167 57.3087 13.657 57.4458 12.8838 57.4458Z" fill="black"/>
<path d="M25.2632 57.4458C24.3046 57.4458 23.449 57.1717 22.6965 56.6235C21.9492 56.07 21.359 55.3189 20.9261 54.3701C20.4983 53.4213 20.2844 52.3486 20.2844 51.1521C20.2844 49.9661 20.4983 48.8987 20.9261 47.9499C21.3539 46.9959 21.9415 46.2421 22.6888 45.6886C23.4413 45.1352 24.2994 44.8584 25.2632 44.8584C25.9745 44.8584 26.6265 45.0166 27.2192 45.3328C27.8171 45.6438 28.317 46.0813 28.719 46.6453C29.1211 47.2041 29.3813 47.8524 29.4999 48.5904H28.9742C28.8144 47.6363 28.3892 46.8614 27.6985 46.2658C27.013 45.6649 26.2013 45.3645 25.2632 45.3645C24.4128 45.3645 23.6474 45.6175 22.9671 46.1235C22.2919 46.6242 21.7585 47.3121 21.3668 48.1871C20.9751 49.0569 20.7792 50.0452 20.7792 51.1521C20.7792 52.2274 20.9673 53.2026 21.3436 54.0776C21.725 54.9526 22.2533 55.6483 22.9285 56.1649C23.6036 56.6815 24.3819 56.9398 25.2632 56.9398C25.8972 56.9398 26.4796 56.8053 27.0105 56.5365C27.5413 56.2624 27.982 55.8776 28.3325 55.3822C28.6881 54.8867 28.9123 54.3095 29.0051 53.6506H29.5308C29.4174 54.4149 29.1597 55.0817 28.7577 55.651C28.3557 56.2203 27.8532 56.663 27.2501 56.9793C26.6471 57.2903 25.9848 57.4458 25.2632 57.4458Z" fill="black"/>
<path d="M33.5239 49.0331V57.1928H33.0291V41H33.5239V46.9774H33.5858C33.8641 46.3449 34.3202 45.8389 34.9542 45.4593C35.5933 45.0798 36.3226 44.8901 37.1421 44.8901C37.9358 44.8901 38.6367 45.0666 39.2449 45.4198C39.8531 45.773 40.3298 46.2605 40.6752 46.8825C41.0205 47.5045 41.1931 48.2214 41.1931 49.0331V57.1928H40.6984V49.0331C40.6984 47.9578 40.3685 47.0828 39.7088 46.4081C39.0491 45.7334 38.1935 45.3961 37.1421 45.3961C36.4411 45.3961 35.8175 45.5516 35.2711 45.8626C34.73 46.1736 34.3022 46.6032 33.9878 47.1514C33.6785 47.6995 33.5239 48.3268 33.5239 49.0331Z" fill="black"/>
<path d="M45.8975 49.0331V57.1928H45.4027V45.0482H45.8975V46.9774H45.9594C46.2377 46.3449 46.6938 45.8389 47.3278 45.4593C47.9669 45.0798 48.6962 44.8901 49.5157 44.8901C50.3094 44.8901 51.0103 45.0666 51.6185 45.4198C52.2267 45.773 52.7034 46.2605 53.0488 46.8825C53.3941 47.5045 53.5667 48.2214 53.5667 49.0331V57.1928H53.0719V49.0331C53.0719 47.9578 52.7421 47.0828 52.0824 46.4081C51.4226 45.7334 50.5671 45.3961 49.5157 45.3961C48.8147 45.3961 48.1911 45.5516 47.6447 45.8626C47.1036 46.1736 46.6758 46.6032 46.3614 47.1514C46.0521 47.6995 45.8975 48.3268 45.8975 49.0331Z" fill="black"/>
<path d="M61.982 57.4458C61.0491 57.4458 60.2116 57.1717 59.4694 56.6235C58.7272 56.07 58.1397 55.3189 57.7067 54.3701C57.2789 53.416 57.0651 52.3434 57.0651 51.1521C57.0651 49.9556 57.2789 48.8829 57.7067 47.9341C58.1397 46.9853 58.7272 46.2368 59.4694 45.6886C60.2116 45.1352 61.0491 44.8584 61.982 44.8584C62.9149 44.8584 63.7499 45.1352 64.4869 45.6886C65.2291 46.2421 65.8166 46.9932 66.2496 47.942C66.6825 48.8908 66.899 49.9608 66.899 51.1521C66.899 52.3434 66.6825 53.416 66.2496 54.3701C65.8218 55.3189 65.2368 56.07 64.4946 56.6235C63.7524 57.1717 62.9149 57.4458 61.982 57.4458ZM61.982 56.9398C62.8221 56.9398 63.5746 56.6867 64.2395 56.1807C64.9095 55.6747 65.4378 54.9842 65.8244 54.1092C66.2109 53.2342 66.4042 52.2485 66.4042 51.1521C66.4042 50.0557 66.2083 49.0727 65.8166 48.2029C65.4301 47.3279 64.9044 46.6374 64.2395 46.1314C63.5746 45.6201 62.8221 45.3645 61.982 45.3645C61.1471 45.3645 60.3946 45.6201 59.7245 46.1314C59.0597 46.6374 58.5314 47.3279 58.1397 48.2029C57.7531 49.0727 57.5598 50.0557 57.5598 51.1521C57.5598 52.2485 57.7531 53.2342 58.1397 54.1092C58.5262 54.9842 59.0519 55.6747 59.7168 56.1807C60.3868 56.6867 61.1419 56.9398 61.982 56.9398Z" fill="black"/>
<path d="M70.8786 41V57.1928H70.3838V41H70.8786Z" fill="black"/>
<path d="M79.288 57.4458C78.3552 57.4458 77.5176 57.1717 76.7755 56.6235C76.0333 56.07 75.4457 55.3189 75.0128 54.3701C74.585 53.416 74.3711 52.3434 74.3711 51.1521C74.3711 49.9556 74.585 48.8829 75.0128 47.9341C75.4457 46.9853 76.0333 46.2368 76.7755 45.6886C77.5176 45.1352 78.3552 44.8584 79.288 44.8584C80.2209 44.8584 81.0559 45.1352 81.7929 45.6886C82.5351 46.2421 83.1227 46.9932 83.5556 47.942C83.9885 48.8908 84.205 49.9608 84.205 51.1521C84.205 52.3434 83.9885 53.416 83.5556 54.3701C83.1278 55.3189 82.5428 56.07 81.8007 56.6235C81.0585 57.1717 80.2209 57.4458 79.288 57.4458ZM79.288 56.9398C80.1282 56.9398 80.8807 56.6867 81.5455 56.1807C82.2156 55.6747 82.7438 54.9842 83.1304 54.1092C83.517 53.2342 83.7102 52.2485 83.7102 51.1521C83.7102 50.0557 83.5144 49.0727 83.1227 48.2029C82.7361 47.3279 82.2104 46.6374 81.5455 46.1314C80.8807 45.6201 80.1282 45.3645 79.288 45.3645C78.4531 45.3645 77.7006 45.6201 77.0306 46.1314C76.3657 46.6374 75.8374 47.3279 75.4457 48.2029C75.0592 49.0727 74.8659 50.0557 74.8659 51.1521C74.8659 52.2485 75.0592 53.2342 75.4457 54.1092C75.8323 54.9842 76.358 55.6747 77.0228 56.1807C77.6929 56.6867 78.4479 56.9398 79.288 56.9398Z" fill="black"/>
<path d="M91.71 62C91.0451 62 90.4318 61.9078 89.87 61.7233C89.3082 61.5441 88.8237 61.2726 88.4165 60.9089C88.0094 60.5505 87.7053 60.1024 87.5042 59.5648L87.9681 59.375C88.1485 59.8494 88.4165 60.2421 88.7721 60.5531C89.1329 60.8694 89.5633 61.1039 90.0632 61.2568C90.5683 61.4149 91.1172 61.494 91.71 61.494C92.9469 61.494 93.9107 61.1593 94.6014 60.4898C95.292 59.8257 95.6374 58.811 95.6374 57.4458V54.1566H95.5755C95.3693 54.8313 95.0627 55.3953 94.6555 55.8486C94.2483 56.2967 93.7767 56.634 93.2407 56.8607C92.7047 57.0821 92.1429 57.1928 91.5553 57.1928C90.6276 57.1928 89.821 56.9371 89.1355 56.4258C88.45 55.9145 87.9192 55.2056 87.5429 54.2989C87.1667 53.3923 86.9785 52.3434 86.9785 51.1521C86.9785 49.9503 87.1641 48.875 87.5352 47.9262C87.9063 46.9774 88.4346 46.2289 89.12 45.6807C89.8055 45.1325 90.6173 44.8584 91.5553 44.8584C92.1944 44.8584 92.7769 44.9928 93.3026 45.2617C93.8283 45.5252 94.2844 45.9047 94.671 46.4002C95.0575 46.8904 95.359 47.4729 95.5755 48.1476H95.6374V45.0482H96.1321V57.4458C96.1321 58.442 95.9543 59.2775 95.5987 59.9522C95.2431 60.6322 94.7354 61.1434 94.0757 61.4861C93.416 61.8287 92.6274 62 91.71 62ZM91.5553 56.6867C92.38 56.6867 93.0964 56.4627 93.7046 56.0147C94.3179 55.5666 94.7921 54.9288 95.1271 54.1013C95.4673 53.2684 95.6374 52.2854 95.6374 51.1521C95.6374 50.0557 95.4724 49.0727 95.1426 48.2029C94.8127 47.3279 94.3411 46.6374 93.7278 46.1314C93.1196 45.6201 92.3955 45.3645 91.5553 45.3645C90.7152 45.3645 89.9885 45.6201 89.3752 46.1314C88.767 46.6374 88.298 47.3279 87.9681 48.2029C87.6383 49.0727 87.4733 50.0557 87.4733 51.1521C87.4733 52.2485 87.6383 53.2131 87.9681 54.0459C88.3031 54.8735 88.7747 55.5218 89.3829 55.991C89.9962 56.4548 90.7204 56.6867 91.5553 56.6867Z" fill="black"/>
<path d="M100.465 57.1928V45.0482H100.96V57.1928H100.465ZM100.713 42.8343C100.579 42.8343 100.463 42.7843 100.365 42.6841C100.267 42.584 100.218 42.4654 100.218 42.3283C100.218 42.1913 100.267 42.0727 100.365 41.9725C100.463 41.8724 100.579 41.8223 100.713 41.8223C100.847 41.8223 100.963 41.8724 101.061 41.9725C101.159 42.0727 101.208 42.1913 101.208 42.3283C101.208 42.4654 101.159 42.584 101.061 42.6841C100.963 42.7843 100.847 42.8343 100.713 42.8343Z" fill="black"/>
<path d="M109.683 57.4458C108.647 57.4458 107.74 57.1691 106.961 56.6156C106.188 56.0621 105.588 55.311 105.16 54.3622C104.732 53.4134 104.518 52.3434 104.518 51.1521C104.518 49.9608 104.732 48.8908 105.16 47.942C105.593 46.9932 106.181 46.2421 106.923 45.6886C107.665 45.1352 108.503 44.8584 109.435 44.8584C110.126 44.8584 110.765 45.0087 111.353 45.3091C111.945 45.6096 112.461 46.026 112.899 46.5584C113.337 47.0907 113.677 47.7048 113.919 48.4006C114.167 49.0911 114.291 49.8291 114.291 50.6145V51.1205H104.766V50.6145H113.796C113.796 49.6393 113.6 48.7564 113.208 47.9657C112.816 47.1698 112.291 46.5373 111.631 46.0681C110.971 45.599 110.239 45.3645 109.435 45.3645C108.621 45.3645 107.884 45.6122 107.224 46.1077C106.565 46.6032 106.036 47.2779 105.639 48.1318C105.243 48.9857 105.034 49.9503 105.013 51.0256V51.0889C105.013 52.1483 105.194 53.1235 105.554 54.0143C105.92 54.8998 106.451 55.6088 107.147 56.1412C107.843 56.6736 108.688 56.9398 109.683 56.9398C110.415 56.9398 111.028 56.808 111.523 56.5444C112.023 56.2809 112.422 55.9778 112.721 55.6352C113.025 55.2925 113.249 55 113.394 54.7575L113.796 55.0422C113.62 55.3479 113.358 55.6879 113.007 56.0621C112.657 56.4364 112.208 56.7605 111.662 57.0346C111.116 57.3087 110.456 57.4458 109.683 57.4458Z" fill="black"/>
<path d="M124.907 47.6099L124.412 47.7364C124.253 47.2093 124.028 46.7718 123.74 46.4239C123.456 46.0708 123.108 45.8072 122.696 45.6333C122.284 45.4541 121.804 45.3645 121.258 45.3645C120.31 45.3645 119.542 45.6122 118.954 46.1077C118.367 46.5979 118.073 47.2462 118.073 48.0527C118.073 48.6905 118.271 49.2255 118.668 49.6578C119.07 50.09 119.676 50.4089 120.485 50.6145L122.341 51.0889C123.212 51.3102 123.871 51.6845 124.32 52.2116C124.773 52.7387 125 53.3765 125 54.125C125 54.7839 124.83 55.3637 124.49 55.8645C124.155 56.3652 123.691 56.7553 123.098 57.0346C122.505 57.3087 121.82 57.4458 121.042 57.4458C119.985 57.4458 119.122 57.1822 118.452 56.6551C117.782 56.128 117.346 55.3795 117.145 54.4096L117.64 54.2831C117.815 55.1423 118.189 55.8012 118.761 56.2598C119.338 56.7131 120.099 56.9398 121.042 56.9398C122.073 56.9398 122.907 56.6815 123.547 56.1649C124.186 55.6483 124.505 54.9684 124.505 54.125C124.505 53.4977 124.315 52.968 123.933 52.5358C123.552 52.1035 122.98 51.7899 122.217 51.5949L120.361 51.1205C119.449 50.8886 118.756 50.509 118.282 49.9819C117.813 49.4548 117.578 48.8117 117.578 48.0527C117.578 47.4149 117.733 46.8588 118.042 46.3844C118.356 45.9047 118.789 45.5305 119.341 45.2617C119.897 44.9928 120.537 44.8584 121.258 44.8584C122.176 44.8584 122.941 45.0904 123.554 45.5542C124.168 46.0128 124.619 46.698 124.907 47.6099Z" fill="black"/>
</svg>
