<svg width="101" height="100" viewBox="0 0 101 100" fill="none" xmlns="http://www.w3.org/2000/svg">
<g id="money 1 (Traced)">
<path id="Layer 1" fill-rule="evenodd" clip-rule="evenodd" d="M47.164 0.459022C45.5314 1.03544 43.6874 2.31816 42.6902 3.571C42.2681 4.10131 41.9227 4.60116 41.9227 4.68163C41.9227 4.76211 40.8464 4.86466 39.5308 4.90978C37.4731 4.9801 36.9848 5.06252 36.036 5.49928C34.6956 6.11652 33.5274 7.24747 32.8039 8.62844C32.3244 9.54375 32.2629 9.87054 32.2603 11.5162C32.2576 13.2944 32.3457 13.6802 34.3718 20.7695C35.5348 24.8384 36.5261 28.2713 36.5749 28.3984C36.6236 28.5256 36.2832 28.9028 35.8185 29.2368C33.6824 30.7713 33.1429 33.9288 34.629 36.1983C34.9008 36.6132 35.0494 37.0134 34.9594 37.0878C30.1267 41.0838 27.3656 44.039 24.5566 48.2215C21.8092 52.3125 19.2265 58.0044 18.1012 62.4481L17.8909 63.2782L11.1131 63.2802C4.42574 63.282 4.32245 63.2882 3.35788 63.7375C2.2701 64.2443 1.26413 65.2749 0.820503 66.3369C0.341146 67.4844 0.43897 69.4686 1.03353 70.6624L1.53925 71.6774L1.03353 72.6923C0.327282 74.1104 0.327282 75.8855 1.03353 77.3036L1.53925 78.3185L1.03353 79.3335C0.0404485 81.3272 0.472359 83.9891 2.00787 85.3377L2.66588 85.9156L2.37788 86.7319C2.02095 87.7441 2.02232 88.921 2.38178 89.9302C2.65554 90.6988 2.65417 90.7035 1.95827 91.3796C0.951717 92.3576 0.53738 93.4026 0.532303 94.9765C0.527226 96.5609 0.871661 97.4807 1.85556 98.5094C3.35944 100.082 2.32047 99.9912 18.7846 99.9937L33.4289 99.9961L34.4156 99.5365C34.9686 99.279 35.7019 98.7161 36.0841 98.2559L36.7659 97.4348L37.784 97.8363C39.3927 98.4706 43.0024 99.3687 45.267 99.6982C47.0554 99.9582 50.8659 100 72.8183 100H98.2944L98.9532 99.5558C99.3156 99.3117 99.8119 98.8151 100.056 98.4526L100.5 97.7936V81.6391V65.4847L100.061 64.8389C99.8189 64.4838 99.3734 64.0094 99.0703 63.7845C98.5363 63.3886 98.2815 63.3741 90.8265 63.3206L83.1336 63.2653L82.9252 62.4416C82.0202 58.8666 79.906 53.8191 77.9286 50.5133C74.8084 45.2973 71.5876 41.6515 66.0686 37.0878C65.9786 37.0134 66.1272 36.6132 66.399 36.1983C67.8851 33.9288 67.3456 30.7713 65.2095 29.2368C64.7448 28.9028 64.4041 28.5262 64.4527 28.4C64.5011 28.2736 65.4924 24.8405 66.6556 20.771C68.6825 13.6802 68.7704 13.2944 68.7677 11.5162C68.7651 9.87054 68.7036 9.54375 68.2241 8.62844C67.5006 7.24747 66.3324 6.11652 64.992 5.49928C64.0432 5.06252 63.5549 4.9801 61.4973 4.90978C60.1816 4.86466 59.1053 4.76211 59.1053 4.68163C59.1053 4.29176 57.4369 2.5131 56.3671 1.76225C54.5129 0.461171 52.9813 0 50.514 0C48.861 0 48.2119 0.0888745 47.164 0.459022ZM53.1843 4.07865C55.2388 5.051 56.5303 6.7236 56.9546 8.96148C57.0635 9.53652 57.1528 11.6689 57.1528 13.7003C57.1528 17.3614 57.1571 17.3979 57.6321 17.8731C58.3062 18.5476 59.4511 18.5359 60.0965 17.8483C60.569 17.3448 60.5698 17.336 60.5698 12.8673V8.39073H61.6308C63.682 8.39092 65.3536 9.80686 65.3536 11.5439C65.3536 11.9164 64.3431 15.7945 63.1081 20.1618C61.8731 24.5294 60.8627 28.1504 60.8627 28.2086C60.8627 28.2668 56.2058 28.3144 50.514 28.3144C44.8222 28.3144 40.1653 28.2668 40.1653 28.2086C40.1653 28.1504 39.1549 24.5294 37.9199 20.1618C36.6849 15.7945 35.6758 11.9086 35.6775 11.5267C35.6857 9.78518 37.3255 8.39112 39.3661 8.39073L40.4582 8.39053L40.3936 12.7518L40.329 17.1131L40.8503 17.7329C41.2674 18.2288 41.5198 18.3527 42.1136 18.3527C42.5528 18.3527 43.0438 18.2005 43.3166 17.9798C43.77 17.613 43.7796 17.5331 43.8934 13.1454C43.9818 9.73088 44.0832 8.48859 44.3247 7.85162C45.3537 5.1387 47.6377 3.53994 50.514 3.51884C51.7408 3.50986 52.1741 3.60069 53.1843 4.07865ZM62.9966 32.0182C63.591 32.3364 63.8718 33.2701 63.565 33.9098C63.0589 34.9658 63.2598 34.9499 50.514 34.9499C37.7682 34.9499 37.9691 34.9658 37.463 33.9098C37.1646 33.2877 37.4268 32.3587 37.9943 32.027C38.4232 31.7762 62.5288 31.7678 62.9966 32.0182ZM63.2198 39.4692C69.9312 44.0862 76.1416 52.6885 78.8418 61.1079C80.0026 64.728 80.2688 66.3806 80.2762 70.0171C80.2824 73.0271 80.2322 73.5338 79.7408 75.4329C78.5274 80.121 76.5827 83.6213 73.2666 87.0849C68.9828 91.5595 63.5396 94.5195 57.0551 95.901C54.5933 96.4255 49.0794 96.6382 46.5112 96.3079C44.1634 96.0059 41.0499 95.2273 38.8803 94.3997C37.4325 93.8472 37.0719 93.627 36.9137 93.1992C36.7409 92.7314 36.8091 92.5781 37.5493 91.7714C38.3787 90.8676 38.9938 89.381 38.9938 88.2803C38.9938 87.1679 38.3922 85.7314 37.5686 84.8771C36.7786 84.0575 36.7569 84.002 36.9815 83.3697C37.4776 81.9723 37.23 80.0302 36.4049 78.8451C36.0448 78.3285 36.0421 78.2767 36.3557 77.9302C37.4928 76.6731 37.4928 73.3228 36.3557 72.0657C36.0421 71.719 36.045 71.6676 36.4076 71.1508C37.8314 69.1209 37.3339 65.829 35.3776 64.3363C34.086 63.3509 33.6707 63.296 27.4248 63.2868C23.8992 63.2816 21.6159 63.2054 21.6159 63.0931C21.6159 62.6592 22.7005 59.5268 23.4772 57.7174C26.5416 50.579 31.9643 43.6145 37.5122 39.6923L39.239 38.4715H50.5042H61.7694L63.2198 39.4692ZM49.236 50.4754C48.9724 50.7391 48.7567 51.1329 48.7567 51.3505C48.7567 51.6208 48.5862 51.7875 48.2197 51.8759C47.4114 52.0709 45.6146 53.0379 44.9201 53.6519C42.0545 56.1849 41.2881 60.5272 43.0858 64.0449C43.7378 65.3208 45.4258 66.9082 46.8445 67.5796C47.5203 67.8995 48.2269 68.1613 48.415 68.1613C48.7311 68.1614 48.7567 68.5197 48.7567 72.947C48.7567 76.7805 48.7053 77.7326 48.4989 77.7326C48.067 77.7326 46.6186 76.3688 46.2197 75.5865C46.0129 75.1814 45.7571 74.3112 45.6513 73.6527C45.4178 72.2024 45.3574 72.0963 44.5836 71.7729C43.7723 71.4338 42.9821 71.6088 42.4821 72.2382C42.1242 72.6888 42.0873 72.9294 42.1812 74.2028C42.3266 76.174 43.2705 78.1002 44.7562 79.4587C45.7876 80.4017 47.6238 81.4438 48.2539 81.4438C48.4201 81.4438 48.6901 81.7643 48.8537 82.1563C49.2349 83.0687 49.6619 83.3846 50.514 83.3846C51.3661 83.3846 51.7931 83.0687 52.1743 82.1563C52.3401 81.7591 52.6095 81.4438 52.7829 81.4438C52.9541 81.4438 53.6405 81.183 54.3081 80.8643C55.8559 80.1253 57.3617 78.5502 58.1874 76.8065C58.7728 75.5701 58.8125 75.3499 58.8125 73.3377C58.8125 71.3277 58.7722 71.1043 58.1906 69.8759C57.1516 67.6819 55.2297 65.9355 53.1918 65.3339L52.3689 65.0909L52.3166 60.2712L52.2645 55.4514L52.8048 55.7346C54.1001 56.4132 55.3824 58.3923 55.3912 59.7264C55.3995 60.9833 56.0568 61.6998 57.2104 61.7094C58.3559 61.7189 58.9101 61.0533 58.9101 59.6674C58.9101 58.4491 58.3495 56.5837 57.6571 55.4985C56.6523 53.9236 54.6525 52.3945 53.0035 51.9404C52.4676 51.7929 52.2713 51.6337 52.2713 51.3468C52.2713 50.1219 50.1873 49.5236 49.236 50.4754ZM48.7567 59.9577C48.7567 62.57 48.6813 64.4502 48.5767 64.4502C48.1244 64.4502 46.6819 63.0876 46.2545 62.2569C45.3149 60.4303 45.5047 58.4851 46.7664 57.0105C47.3221 56.3613 48.4423 55.4698 48.7079 55.4659C48.7346 55.4655 48.7567 57.4867 48.7567 59.9577ZM33.2425 67.2737C34.0872 68.1185 33.6722 69.5373 32.496 69.8256C32.2574 69.8842 25.9258 69.9073 18.4255 69.877L4.78912 69.8217L4.41579 69.3606C3.8636 68.6783 3.92784 67.6942 4.55715 67.1991C5.06658 66.7981 5.2056 66.7942 18.9174 66.7942H32.7633L33.2425 67.2737ZM89.0714 67.5139C89.647 70.5833 93.3026 74.2635 96.2434 74.7339L96.9854 74.8526V81.6424V88.4321L96.3156 88.5578C95.0572 88.794 92.8668 90.0564 91.7134 91.2102C90.56 92.364 89.2981 94.5552 89.062 95.8141L88.9362 96.4841L77.682 96.4813L66.4275 96.4786L67.848 95.7039C76.0317 91.2413 81.5713 83.9553 83.4464 75.1886C83.7098 73.9567 83.8012 72.6708 83.8029 70.1636L83.8055 66.7943L86.3709 66.7942H88.9362L89.0714 67.5139ZM96.9854 69.043V71.292L96.2682 70.9921C95.1603 70.529 93.9067 69.3989 93.2708 68.2894C92.9531 67.7356 92.6926 67.1727 92.6914 67.0383C92.6901 66.8576 93.2485 66.7942 94.8375 66.7942H96.9854V69.043ZM53.9002 69.8958C54.8761 70.7962 55.2863 71.8149 55.2863 73.3377C55.2863 74.3666 55.1807 74.9052 54.8595 75.5142C54.4127 76.361 52.9719 77.7326 52.5291 77.7326C52.3231 77.7326 52.2713 76.827 52.2713 73.2175V68.7025L52.8083 69.0432C53.1035 69.2307 53.595 69.6143 53.9002 69.8958ZM33.2425 73.9148C33.5447 74.217 33.7218 74.6174 33.7218 74.9979C33.7218 75.3784 33.5447 75.7789 33.2425 76.081L32.7633 76.5606H18.8822H5.00117L4.52201 76.081C4.21975 75.7789 4.04265 75.3784 4.04265 74.9979C4.04265 74.6174 4.21975 74.217 4.52201 73.9148L5.00117 73.4353H18.8822H32.7633L33.2425 73.9148ZM88.9567 76.8182C87.8756 77.2231 86.9704 77.84 86.4762 78.5086C85.3462 80.0374 85.1375 82.272 85.9685 83.9401C86.9114 85.833 88.6018 86.8089 90.7141 86.68C92.7457 86.5561 94.141 85.666 95.0955 83.8854C95.6461 82.8584 95.6732 80.5117 95.1464 79.4905C94.6534 78.5348 93.7064 77.5741 92.793 77.1036C91.8212 76.6028 89.9116 76.4608 88.9567 76.8182ZM32.8072 80.3037C33.8255 80.8463 34.0227 81.9419 33.2425 82.7222L32.7633 83.2017H18.9174C5.2056 83.2017 5.06658 83.1978 4.55715 82.7968C3.73199 82.1476 3.92549 80.6601 4.88519 80.2732C5.56527 79.9991 32.2902 80.0282 32.8072 80.3037ZM91.5332 80.6474C92.1523 81.2668 92.2279 81.6272 91.8768 82.2868C91.3344 83.3055 90.2392 83.5028 89.4591 82.7222C88.6808 81.9436 88.8617 80.8475 89.8585 80.3021C90.4956 79.9534 90.9287 80.0429 91.5332 80.6474ZM34.8758 87.206C35.536 87.8785 35.5719 88.5307 34.9871 89.2261L34.4681 89.8429H20.5462C7.57408 89.8429 6.59623 89.8197 6.21274 89.5011C5.98644 89.3132 5.74666 88.8772 5.68008 88.5323C5.57874 88.007 5.65587 87.8084 6.15651 87.3075L6.7538 86.71L20.623 86.7626C34.1983 86.8142 34.5003 86.8235 34.8758 87.206ZM96.9854 94.3355V96.4841H94.8375C93.4809 96.4841 92.6897 96.4093 92.6897 96.2809C92.6897 95.399 94.4474 93.2864 95.7554 92.5957C96.9811 91.9488 96.9854 91.9548 96.9854 94.3355ZM33.2507 94.0046C33.8286 94.6767 33.8493 95.2926 33.3171 95.9694L32.9125 96.4841H18.9295H4.9465L4.49447 96.0594C3.72496 95.3361 3.93311 94.1284 4.92131 93.5823C5.19818 93.4292 9.30758 93.3795 19.0457 93.4114L32.7795 93.4565L33.2507 94.0046Z" fill="white"/>
<path id="Layer 2" fill-rule="evenodd" clip-rule="evenodd" d="M47.164 0.459022C45.5314 1.03544 43.6874 2.31816 42.6902 3.571C42.2681 4.10131 41.9227 4.60116 41.9227 4.68163C41.9227 4.76211 40.8464 4.86466 39.5308 4.90978C37.4731 4.9801 36.9848 5.06252 36.036 5.49928C34.6956 6.11652 33.5274 7.24747 32.8039 8.62844C32.3244 9.54375 32.2629 9.87054 32.2603 11.5162C32.2576 13.2944 32.3457 13.6802 34.3718 20.7695C35.5348 24.8384 36.5261 28.2713 36.5749 28.3984C36.6236 28.5256 36.2832 28.9028 35.8185 29.2368C33.6824 30.7713 33.1429 33.9288 34.629 36.1983C34.9008 36.6132 35.0494 37.0134 34.9594 37.0878C30.1267 41.0838 27.3656 44.039 24.5566 48.2215C21.8092 52.3125 19.2265 58.0044 18.1012 62.4481L17.8909 63.2782L11.1131 63.2802C4.42574 63.282 4.32245 63.2882 3.35788 63.7375C2.2701 64.2443 1.26413 65.2749 0.820503 66.3369C0.341146 67.4844 0.43897 69.4686 1.03353 70.6624L1.53925 71.6774L1.03353 72.6923C0.327282 74.1104 0.327282 75.8855 1.03353 77.3036L1.53925 78.3185L1.03353 79.3335C0.0404485 81.3272 0.472359 83.9891 2.00787 85.3377L2.66588 85.9156L2.37788 86.7319C2.02095 87.7441 2.02232 88.921 2.38178 89.9302C2.65554 90.6988 2.65417 90.7035 1.95827 91.3796C0.951717 92.3576 0.53738 93.4026 0.532303 94.9765C0.527226 96.5609 0.871661 97.4807 1.85556 98.5094C3.35944 100.082 2.32047 99.9912 18.7846 99.9937L33.4289 99.9961L34.4156 99.5365C34.9686 99.279 35.7019 98.7161 36.0841 98.2559L36.7659 97.4348L37.784 97.8363C39.3927 98.4706 43.0024 99.3687 45.267 99.6982C47.0554 99.9582 50.8659 100 72.8183 100H98.2944L98.9532 99.5558C99.3156 99.3117 99.8119 98.8151 100.056 98.4526L100.5 97.7936V81.6391V65.4847L100.061 64.8389C99.8189 64.4838 99.3734 64.0094 99.0703 63.7845C98.5363 63.3886 98.2815 63.3741 90.8265 63.3206L83.1336 63.2653L82.9252 62.4416C82.0202 58.8666 79.906 53.8191 77.9286 50.5133C74.8084 45.2973 71.5876 41.6515 66.0686 37.0878C65.9786 37.0134 66.1272 36.6132 66.399 36.1983C67.8851 33.9288 67.3456 30.7713 65.2095 29.2368C64.7448 28.9028 64.4041 28.5262 64.4527 28.4C64.5011 28.2736 65.4924 24.8405 66.6556 20.771C68.6825 13.6802 68.7704 13.2944 68.7677 11.5162C68.7651 9.87054 68.7036 9.54375 68.2241 8.62844C67.5006 7.24747 66.3324 6.11652 64.992 5.49928C64.0432 5.06252 63.5549 4.9801 61.4973 4.90978C60.1816 4.86466 59.1053 4.76211 59.1053 4.68163C59.1053 4.29176 57.4369 2.5131 56.3671 1.76225C54.5129 0.461171 52.9813 0 50.514 0C48.861 0 48.2119 0.0888745 47.164 0.459022ZM53.1843 4.07865C55.2388 5.051 56.5303 6.7236 56.9546 8.96148C57.0635 9.53652 57.1528 11.6689 57.1528 13.7003C57.1528 17.3614 57.1571 17.3979 57.6321 17.8731C58.3062 18.5476 59.4511 18.5359 60.0965 17.8483C60.569 17.3448 60.5698 17.336 60.5698 12.8673V8.39073H61.6308C63.682 8.39092 65.3536 9.80686 65.3536 11.5439C65.3536 11.9164 64.3431 15.7945 63.1081 20.1618C61.8731 24.5294 60.8627 28.1504 60.8627 28.2086C60.8627 28.2668 56.2058 28.3144 50.514 28.3144C44.8222 28.3144 40.1653 28.2668 40.1653 28.2086C40.1653 28.1504 39.1549 24.5294 37.9199 20.1618C36.6849 15.7945 35.6758 11.9086 35.6775 11.5267C35.6857 9.78518 37.3255 8.39112 39.3661 8.39073L40.4582 8.39053L40.3936 12.7518L40.329 17.1131L40.8503 17.7329C41.2674 18.2288 41.5198 18.3527 42.1136 18.3527C42.5528 18.3527 43.0438 18.2005 43.3166 17.9798C43.77 17.613 43.7796 17.5331 43.8934 13.1454C43.9818 9.73088 44.0832 8.48859 44.3247 7.85162C45.3537 5.1387 47.6377 3.53994 50.514 3.51884C51.7408 3.50986 52.1741 3.60069 53.1843 4.07865ZM62.9966 32.0182C63.591 32.3364 63.8718 33.2701 63.565 33.9098C63.0589 34.9658 63.2598 34.9499 50.514 34.9499C37.7682 34.9499 37.9691 34.9658 37.463 33.9098C37.1646 33.2877 37.4268 32.3587 37.9943 32.027C38.4232 31.7762 62.5288 31.7678 62.9966 32.0182ZM63.2198 39.4692C69.9312 44.0862 76.1416 52.6885 78.8418 61.1079C80.0026 64.728 80.2688 66.3806 80.2762 70.0171C80.2824 73.0271 80.2322 73.5338 79.7408 75.4329C78.5274 80.121 76.5827 83.6213 73.2666 87.0849C68.9828 91.5595 63.5396 94.5195 57.0551 95.901C54.5933 96.4255 49.0794 96.6382 46.5112 96.3079C44.1634 96.0059 41.0499 95.2273 38.8803 94.3997C37.4325 93.8472 37.0719 93.627 36.9137 93.1992C36.7409 92.7314 36.8091 92.5781 37.5493 91.7714C38.3787 90.8676 38.9938 89.381 38.9938 88.2803C38.9938 87.1679 38.3922 85.7314 37.5686 84.8771C36.7786 84.0575 36.7569 84.002 36.9815 83.3697C37.4776 81.9723 37.23 80.0302 36.4049 78.8451C36.0448 78.3285 36.0421 78.2767 36.3557 77.9302C37.4928 76.6731 37.4928 73.3228 36.3557 72.0657C36.0421 71.719 36.045 71.6676 36.4076 71.1508C37.8314 69.1209 37.3339 65.829 35.3776 64.3363C34.086 63.3509 33.6707 63.296 27.4248 63.2868C23.8992 63.2816 21.6159 63.2054 21.6159 63.0931C21.6159 62.6592 22.7005 59.5268 23.4772 57.7174C26.5416 50.579 31.9643 43.6145 37.5122 39.6923L39.239 38.4715H50.5042H61.7694L63.2198 39.4692ZM49.236 50.4754C48.9724 50.7391 48.7567 51.1329 48.7567 51.3505C48.7567 51.6208 48.5862 51.7875 48.2197 51.8759C47.4114 52.0709 45.6146 53.0379 44.9201 53.6519C42.0545 56.1849 41.2881 60.5272 43.0858 64.0449C43.7378 65.3208 45.4258 66.9082 46.8445 67.5796C47.5203 67.8995 48.2269 68.1613 48.415 68.1613C48.7311 68.1614 48.7567 68.5197 48.7567 72.947C48.7567 76.7805 48.7053 77.7326 48.4989 77.7326C48.067 77.7326 46.6186 76.3688 46.2197 75.5865C46.0129 75.1814 45.7571 74.3112 45.6513 73.6527C45.4178 72.2024 45.3574 72.0963 44.5836 71.7729C43.7723 71.4338 42.9821 71.6088 42.4821 72.2382C42.1242 72.6888 42.0873 72.9294 42.1812 74.2028C42.3266 76.174 43.2705 78.1002 44.7562 79.4587C45.7876 80.4017 47.6238 81.4438 48.2539 81.4438C48.4201 81.4438 48.6901 81.7643 48.8537 82.1563C49.2349 83.0687 49.6619 83.3846 50.514 83.3846C51.3661 83.3846 51.7931 83.0687 52.1743 82.1563C52.3401 81.7591 52.6095 81.4438 52.7829 81.4438C52.9541 81.4438 53.6405 81.183 54.3081 80.8643C55.8559 80.1253 57.3617 78.5502 58.1874 76.8065C58.7728 75.5701 58.8125 75.3499 58.8125 73.3377C58.8125 71.3277 58.7722 71.1043 58.1906 69.8759C57.1516 67.6819 55.2297 65.9355 53.1918 65.3339L52.3689 65.0909L52.3166 60.2712L52.2645 55.4514L52.8048 55.7346C54.1001 56.4132 55.3824 58.3923 55.3912 59.7264C55.3995 60.9833 56.0568 61.6998 57.2104 61.7094C58.3559 61.7189 58.9101 61.0533 58.9101 59.6674C58.9101 58.4491 58.3495 56.5837 57.6571 55.4985C56.6523 53.9236 54.6525 52.3945 53.0035 51.9404C52.4676 51.7929 52.2713 51.6337 52.2713 51.3468C52.2713 50.1219 50.1873 49.5236 49.236 50.4754ZM48.7567 59.9577C48.7567 62.57 48.6813 64.4502 48.5767 64.4502C48.1244 64.4502 46.6819 63.0876 46.2545 62.2569C45.3149 60.4303 45.5047 58.4851 46.7664 57.0105C47.3221 56.3613 48.4423 55.4698 48.7079 55.4659C48.7346 55.4655 48.7567 57.4867 48.7567 59.9577ZM33.2425 67.2737C34.0872 68.1185 33.6722 69.5373 32.496 69.8256C32.2574 69.8842 25.9258 69.9073 18.4255 69.877L4.78912 69.8217L4.41579 69.3606C3.8636 68.6783 3.92784 67.6942 4.55715 67.1991C5.06658 66.7981 5.2056 66.7942 18.9174 66.7942H32.7633L33.2425 67.2737ZM89.0714 67.5139C89.647 70.5833 93.3026 74.2635 96.2434 74.7339L96.9854 74.8526V81.6424V88.4321L96.3156 88.5578C95.0572 88.794 92.8668 90.0564 91.7134 91.2102C90.56 92.364 89.2981 94.5552 89.062 95.8141L88.9362 96.4841L77.682 96.4813L66.4275 96.4786L67.848 95.7039C76.0317 91.2413 81.5713 83.9553 83.4464 75.1886C83.7098 73.9567 83.8012 72.6708 83.8029 70.1636L83.8055 66.7943L86.3709 66.7942H88.9362L89.0714 67.5139ZM96.9854 69.043V71.292L96.2682 70.9921C95.1603 70.529 93.9067 69.3989 93.2708 68.2894C92.9531 67.7356 92.6926 67.1727 92.6914 67.0383C92.6901 66.8576 93.2485 66.7942 94.8375 66.7942H96.9854V69.043ZM53.9002 69.8958C54.8761 70.7962 55.2863 71.8149 55.2863 73.3377C55.2863 74.3666 55.1807 74.9052 54.8595 75.5142C54.4127 76.361 52.9719 77.7326 52.5291 77.7326C52.3231 77.7326 52.2713 76.827 52.2713 73.2175V68.7025L52.8083 69.0432C53.1035 69.2307 53.595 69.6143 53.9002 69.8958ZM33.2425 73.9148C33.5447 74.217 33.7218 74.6174 33.7218 74.9979C33.7218 75.3784 33.5447 75.7789 33.2425 76.081L32.7633 76.5606H18.8822H5.00117L4.52201 76.081C4.21975 75.7789 4.04265 75.3784 4.04265 74.9979C4.04265 74.6174 4.21975 74.217 4.52201 73.9148L5.00117 73.4353H18.8822H32.7633L33.2425 73.9148ZM88.9567 76.8182C87.8756 77.2231 86.9704 77.84 86.4762 78.5086C85.3462 80.0374 85.1375 82.272 85.9685 83.9401C86.9114 85.833 88.6018 86.8089 90.7141 86.68C92.7457 86.5561 94.141 85.666 95.0955 83.8854C95.6461 82.8584 95.6732 80.5117 95.1464 79.4905C94.6534 78.5348 93.7064 77.5741 92.793 77.1036C91.8212 76.6028 89.9116 76.4608 88.9567 76.8182ZM32.8072 80.3037C33.8255 80.8463 34.0227 81.9419 33.2425 82.7222L32.7633 83.2017H18.9174C5.2056 83.2017 5.06658 83.1978 4.55715 82.7968C3.73199 82.1476 3.92549 80.6601 4.88519 80.2732C5.56527 79.9991 32.2902 80.0282 32.8072 80.3037ZM91.5332 80.6474C92.1523 81.2668 92.2279 81.6272 91.8768 82.2868C91.3344 83.3055 90.2392 83.5028 89.4591 82.7222C88.6808 81.9436 88.8617 80.8475 89.8585 80.3021C90.4956 79.9534 90.9287 80.0429 91.5332 80.6474ZM34.8758 87.206C35.536 87.8785 35.5719 88.5307 34.9871 89.2261L34.4681 89.8429H20.5462C7.57408 89.8429 6.59623 89.8197 6.21274 89.5011C5.98644 89.3132 5.74666 88.8772 5.68008 88.5323C5.57874 88.007 5.65587 87.8084 6.15651 87.3075L6.7538 86.71L20.623 86.7626C34.1983 86.8142 34.5003 86.8235 34.8758 87.206ZM96.9854 94.3355V96.4841H94.8375C93.4809 96.4841 92.6897 96.4093 92.6897 96.2809C92.6897 95.399 94.4474 93.2864 95.7554 92.5957C96.9811 91.9488 96.9854 91.9548 96.9854 94.3355ZM33.2507 94.0046C33.8286 94.6767 33.8493 95.2926 33.3171 95.9694L32.9125 96.4841H18.9295H4.9465L4.49447 96.0594C3.72496 95.3361 3.93311 94.1284 4.92131 93.5823C5.19818 93.4292 9.30758 93.3795 19.0457 93.4114L32.7795 93.4565L33.2507 94.0046Z" fill="white"/>
</g>
</svg>
