<svg width="217" height="90" viewBox="0 0 217 90" fill="none" xmlns="http://www.w3.org/2000/svg">
<g id="Taobao_Logo 1">
<g id="Group">
<path id="Vector" d="M19.57 8.3935C19.57 11.4183 16.8259 13.8708 13.4405 13.8708C10.0559 13.8708 7.31104 11.4183 7.31104 8.3935C7.31104 5.36876 10.0559 2.91626 13.4405 2.91626C16.8259 2.91626 19.57 5.36877 19.57 8.3935Z" fill="white"/>
<path id="Vector_2" d="M4.51997 22.1216L8.2813 16.2979C8.2813 16.2979 13.5744 20.3876 15.1771 21.7751C16.779 23.1618 19.6354 25.5191 19.5653 29.3321C19.4952 33.1451 18.3808 36.4736 17.4752 38.7619C16.5703 41.0494 10.6495 53.1131 10.6495 53.1131L1.59424 47.4971C1.59424 47.4971 10.3029 39.4789 13.6445 34.6016C14.6896 33.0761 15.9426 29.0554 12.3907 26.9749C8.83812 24.8951 4.51997 22.1216 4.51997 22.1216Z" fill="white"/>
<path id="Vector_3" d="M16.1519 18.6546C16.1519 18.6546 21.0969 15.4656 25.9734 2.15308C27.3658 2.63833 34.401 4.51034 34.401 4.51034L32.1021 8.73958C32.1021 8.73958 42.6206 5.55058 51.6751 5.55058C51.6751 5.55058 56.6208 5.34282 60.4523 6.59082C64.2829 7.83883 68.1844 10.4046 69.1594 14.5641C70.1344 18.7236 71.1787 32.5911 69.2287 45.1393C69.2287 45.1393 68.8105 48.0523 66.0942 50.6173C63.378 53.1823 60.1042 54.4303 54.3228 54.4303C48.5414 54.4303 45.4763 53.3211 45.4763 53.3211L46.6607 48.4671C46.6607 48.4671 50.2133 49.7848 52.9989 49.7848C55.7853 49.7848 58.1534 48.6066 59.4072 47.1509C59.4072 47.1509 60.5223 45.4866 60.5917 44.0998C60.661 42.7131 60.7311 16.0896 60.4523 15.1881C60.1735 14.2866 59.8254 10.8891 55.5065 10.0573C51.1883 9.22558 47.7751 9.77983 46.73 9.98833C45.6857 10.1961 39.1381 11.7906 35.8642 13.1076C37.118 13.5238 39.5562 14.1478 39.5562 14.1478C39.5562 14.1478 38.4418 16.4361 36.4218 18.6546C39.2081 18.5856 57.7353 18.6546 57.7353 18.6546V22.8148H45.8251V28.3611H57.5966V32.5213H45.8251V41.3263C45.8251 41.3263 47.7751 41.3263 50.6308 39.1078C50.4221 37.5823 50.4914 37.3738 49.7952 35.1553C51.6065 34.7398 55.2285 33.4918 55.2285 33.4918L59.7561 44.6548L52.9989 47.2888L51.7452 42.7821C51.7452 42.7821 49.7259 45.0703 44.7801 46.5268C37.8941 48.5541 33.4968 48.4678 32.3124 48.3988C32.3124 48.3988 28.9692 48.5361 26.9491 47.6353C24.9283 46.7346 22.0034 44.6548 22.0034 38.6916C22.0034 36.6816 22.4909 35.0173 22.4909 35.0173L30.9885 35.0863C30.9885 35.0863 30.5711 38.0684 30.5711 38.8303C30.5711 39.5931 29.9434 42.8518 36.0729 42.7821C36.0729 38.4148 36.0036 32.4516 36.0036 32.4516L23.884 32.3826V28.2223H35.9343V22.9528H32.8692C32.8692 22.9528 29.526 26.0736 27.6453 27.9456L24.1628 24.8946C24.1628 24.8946 28.1818 20.7351 30.9192 14.7028C29.3173 15.3268 26.531 16.5748 26.531 16.5748C26.531 16.5748 24.5802 19.0708 22.1427 21.6359C20.4015 20.6653 16.1519 18.6546 16.1519 18.6546Z" fill="white"/>
<path id="Vector_4" d="M89.5673 15.0497L89.498 19.0022H128.574C128.574 19.0022 132.822 16.4364 132.822 13.9404C132.822 11.4444 129.549 10.7514 127.319 10.6127C125.091 10.4739 118.822 10.4049 113.667 11.0289C108.513 11.6529 96.6718 13.0389 89.5673 15.0497ZM79.8852 24.6174V7.63141H89.4279V9.78091C89.4279 9.78091 103.08 7.90891 104.543 7.90891V3.05493H115.339V6.72991C115.339 6.72991 122.235 6.1059 126.762 6.1059C131.29 6.1059 136.582 6.86792 138.603 7.56165C140.624 8.25541 143.062 9.98865 143.062 13.5939C143.062 17.1992 140.345 20.9432 134.912 24.5484C133.24 22.8842 131.987 21.7059 131.987 21.7059L132.056 23.3004H115.479V28.9164H134.494V33.3534H115.479V46.5962H141.32V52.0734H79.8159V46.5962H104.334V33.4922H87.4079V28.9164H104.403V23.3694H89.5674V24.6174H79.8852Z" fill="white"/>
<path id="Vector_5" d="M133.662 40.0789C133.662 43.0654 130.949 45.4864 127.603 45.4864C124.257 45.4864 121.543 43.0654 121.543 40.0789C121.543 37.0924 124.257 34.6714 127.603 34.6714C130.949 34.6714 133.662 37.0924 133.662 40.0789Z" fill="white"/>
<path id="Vector_6" d="M169.53 26.9065C167.022 23.1625 163.469 20.8053 163.469 20.8053C163.469 20.8053 165.35 18.7248 166.326 17.1302C168.347 18.517 170.505 20.0425 172.803 21.706C174.823 18.3093 177.47 12.3468 177.47 12.3468C177.47 12.3468 184.018 15.6055 185.272 16.2295C184.645 18.2403 184.087 18.9332 184.087 18.9332C184.087 18.9332 188.196 21.637 190.704 23.2323C193.56 17.824 194.814 11.515 194.814 11.515L203.382 16.7148C203.382 16.7148 203.382 13.525 203.242 12.208C203.104 7.56254 198.018 7.00829 195.301 7.07729C192.585 7.1463 186.594 8.25552 179.839 9.71204C173.082 11.1678 162.424 15.8823 162.424 15.8823V33.5628C166.186 31.2746 167.649 29.4715 169.53 26.9065ZM162.494 35.4348V52.0053H151.768V5.8293H162.424V9.8508C162.424 9.8508 172.804 5.89905 179.839 4.44257C186.874 2.98682 190.913 2.98682 192.585 2.98682C194.256 2.98682 201.153 3.74957 205.053 5.2053C208.954 6.66104 211.74 9.57332 212.854 12.6933C213.969 15.8133 214.038 24.3408 214.038 28.2933C214.038 32.2451 213.76 44.3778 213.342 46.7351C212.924 49.0931 211.948 51.7968 209.858 53.3223C207.77 54.8478 204.774 54.5006 202.058 53.9463C199.341 53.3913 196.137 52.2131 193.421 50.7573V46.1808C193.421 46.1808 196.067 48.0528 198.714 48.0528C201.361 48.0528 203.452 46.4583 203.452 42.922C203.452 39.3865 203.798 24.2028 203.52 17.9628C201.78 20.7355 198.157 25.6578 196.555 27.4608C198.714 28.9863 201.292 31.3443 202.824 33.1465C200.804 34.9488 195.371 39.3865 195.371 39.3865C195.371 39.3865 192.167 34.5325 191.401 33.6318C190.565 34.6023 185.41 40.2873 177.331 45.0017C175.938 42.9918 173.987 40.4958 173.987 40.4958C173.987 40.4958 180.047 38.416 187.43 28.6398C185.829 26.9755 183.46 23.9245 181.371 22.5385C180.535 23.7175 178.096 26.2825 178.096 26.2825C178.096 26.2825 180.326 27.946 181.928 30.8583C180.535 32.245 176.217 36.6828 176.217 36.6828L172.733 31.3443C172.733 31.3443 168.903 35.365 165.35 37.93C163.609 36.2665 162.494 35.4348 162.494 35.4348Z" fill="white"/>
<path id="Vector_7" d="M6.19385 67.753C6.19385 67.753 7.23138 63.985 11.2933 64.1365C15.3546 64.288 18.3466 64.501 20.6982 64.501C23.049 64.501 28.3926 63.985 28.9728 63.7712C28.6978 64.8955 27.4161 67.054 25.5227 67.054H21.2166C21.2166 67.054 20.2092 67.024 20.2092 68.2697V83.1325C20.2092 83.1325 20.4842 85.1695 22.4689 84.6828C21.8277 86.4152 20.1783 87.4187 18.2547 87.4187C16.3318 87.4187 14.4384 86.2022 14.4384 84.5305V68.0267C14.4384 67.1755 14.3163 66.9625 12.789 66.9017C11.8735 66.865 10.1081 66.7795 8.57559 66.9625C7.58628 67.0802 6.80491 67.4432 6.19385 67.753Z" fill="white"/>
<path id="Vector_8" d="M35.0504 76.6583C33.1275 76.6583 31.5693 78.4823 31.5693 80.7316C31.5693 82.9808 33.1275 84.8041 35.0504 84.8041C36.9732 84.8041 38.5314 82.9808 38.5314 80.7316C38.5314 78.4823 36.9732 76.6583 35.0504 76.6583ZM27.7831 71.6738C27.964 71.0461 28.3023 69.9721 29.6457 69.2116C31.1346 68.3686 33.34 68.3303 34.1342 68.3303C34.9283 68.3303 37.4329 68.4833 38.1954 68.6956C38.9586 68.9078 43.325 69.5776 43.325 74.3491V83.3453C43.325 83.3453 43.5089 85.2301 45.4325 84.6218C45.1575 86.4758 43.325 87.4186 42.0125 87.4186C40.6992 87.4186 38.5623 86.6273 38.5623 85.0171C38.5623 85.0171 37.7064 87.7216 33.1268 87.6916C28.5464 87.6616 26.0728 84.9256 26.0728 80.8531C26.0728 76.7798 29.0347 73.9538 33.4018 73.9538C34.8673 73.9538 37.463 74.5313 38.5623 76.2638C38.5721 74.1368 38.1773 71.2418 34.8921 70.9381C33.2051 70.8308 29.8303 70.9028 27.7831 71.6738Z" fill="white"/>
<path id="Vector_9" d="M101.356 76.6583C99.4332 76.6583 97.875 78.4823 97.875 80.7316C97.875 82.9808 99.4332 84.8041 101.356 84.8041C103.279 84.8041 104.837 82.9808 104.837 80.7316C104.837 78.4823 103.279 76.6583 101.356 76.6583ZM94.0888 71.6738C94.2696 71.0461 94.6079 69.9721 95.9514 69.2116C97.4402 68.3686 99.6456 68.3303 100.44 68.3303C101.234 68.3303 103.739 68.4833 104.501 68.6956C105.264 68.9078 109.631 69.5776 109.631 74.3491V83.3453C109.631 83.3453 109.815 85.2301 111.737 84.6218C111.463 86.4758 109.631 87.4186 108.318 87.4186C107.005 87.4186 104.868 86.6273 104.868 85.0171C104.868 85.0171 104.012 87.7216 99.4324 87.6916C94.8521 87.6616 92.3784 84.9256 92.3784 80.8531C92.3784 76.7798 95.3403 73.9538 99.7074 73.9538C101.173 73.9538 103.769 74.5313 104.868 76.2638C104.878 74.1368 104.483 71.2418 101.198 70.9381C99.5108 70.8308 96.136 70.9028 94.0888 71.6738Z" fill="white"/>
<path id="Vector_10" d="M56.9141 71.218C54.8398 71.218 53.1588 74.2795 53.1588 78.0565C53.1588 81.8335 54.8398 84.895 56.9141 84.895C58.9884 84.895 60.6694 81.8335 60.6694 78.0565C60.6694 74.2795 58.9884 71.218 56.9141 71.218ZM66.441 78.0565C66.441 83.479 62.1756 87.874 56.9141 87.874C51.6526 87.874 47.3872 83.479 47.3872 78.0565C47.3872 72.6347 51.6526 68.239 56.9141 68.239C62.1756 68.239 66.441 72.6348 66.441 78.0565Z" fill="white"/>
<path id="Vector_11" d="M123.031 71.218C120.957 71.218 119.276 74.2795 119.276 78.0565C119.276 81.8335 120.957 84.895 123.031 84.895C125.106 84.895 126.787 81.8335 126.787 78.0565C126.787 74.2795 125.106 71.218 123.031 71.218ZM132.558 78.0565C132.558 83.479 128.293 87.874 123.031 87.874C117.77 87.874 113.504 83.479 113.504 78.0565C113.504 72.6347 117.77 68.239 123.031 68.239C128.293 68.239 132.558 72.6348 132.558 78.0565Z" fill="white"/>
<path id="Vector_12" d="M172.007 71.218C169.933 71.218 168.252 74.2795 168.252 78.0565C168.252 81.8335 169.933 84.895 172.007 84.895C174.082 84.895 175.763 81.8335 175.763 78.0565C175.763 74.2795 174.082 71.218 172.007 71.218ZM181.534 78.0565C181.534 83.479 177.269 87.874 172.007 87.874C166.746 87.874 162.48 83.479 162.48 78.0565C162.48 72.6347 166.746 68.239 172.007 68.239C177.269 68.239 181.534 72.6348 181.534 78.0565Z" fill="white"/>
<path id="Vector_13" d="M75.6671 74.1939C75.096 75.9361 75.4004 80.7106 75.6671 81.6204C75.9338 82.5301 76.9232 84.8034 79.4737 84.8034C82.0242 84.8034 82.8997 82.3029 83.0896 81.4689C83.2802 80.6356 83.6607 78.4373 82.9758 74.6484C82.2909 70.8601 79.3976 71.1631 79.3976 71.1631C77.3037 71.2014 76.2382 72.4516 75.6671 74.1939ZM68.0156 64.5699C68.0156 64.5699 68.3961 61.7664 71.6323 61.7664C74.8677 61.7664 75.5149 63.8124 75.5149 64.3426V70.6321C75.5149 70.6321 76.8855 68.5861 81.0725 68.5861C85.2596 68.5861 89.1038 71.5426 89.1038 77.1121C89.1038 77.1121 89.9801 87.5311 80.8442 87.5311C77.8748 87.5311 76.1622 86.5464 75.2866 85.1064C74.7155 86.5846 73.3826 87.4179 71.7845 87.4179C70.1856 87.4179 68.2824 86.4331 68.2824 84.6519C68.9673 84.7276 70.2617 84.6894 70.2617 83.0221V65.8966C70.2617 65.8966 70.1095 64.5699 68.0156 64.5699Z" fill="white"/>
<path id="Vector_14" d="M140.338 84.9927C140.338 86.4364 139.145 87.6064 137.674 87.6064C136.202 87.6064 135.009 86.4364 135.009 84.9927C135.009 83.5489 136.202 82.3789 137.674 82.3789C139.145 82.3789 140.338 83.5489 140.338 84.9927Z" fill="white"/>
<path id="Vector_15" d="M159.79 84.7274C159.79 84.7274 158.838 83.7051 157.963 83.7426C157.087 83.7794 156.631 84.0831 156.135 84.2729C155.64 84.4619 154.574 84.8406 153.623 84.8406C152.672 84.8406 150.921 84.4619 149.626 82.4916C148.319 80.5012 148.331 76.6184 148.751 74.9894C149.17 73.3596 150.159 72.1094 151.3 71.3901C152.443 70.6709 154.613 70.9356 155.374 71.5416C156.135 72.1476 156.477 73.2839 157.886 73.2839C159.295 73.2839 160.093 71.6174 159.866 70.4804C159.866 70.4804 157.582 68.6256 152.862 68.5859C148.446 68.5484 145.934 70.9349 145.135 71.8822C144.335 72.8294 142.812 75.1026 142.812 78.1341C142.812 81.1656 144.335 84.2347 146.162 85.6364C147.978 87.0291 150.654 87.7206 152.633 87.7206C154.613 87.7206 157.658 87.0389 159.79 84.7274Z" fill="white"/>
<path id="Vector_16" d="M183.315 71.4663C183.315 71.4663 183.734 68.6246 187.007 68.6246C189.71 68.6246 190.433 70.6331 190.433 70.6331C190.433 70.6331 192.109 68.4348 195.61 68.4348C199.112 68.4348 200.712 70.1021 201.358 70.9736C202.5 69.8748 203.681 68.4731 206.878 68.4731C210.075 68.4731 212.778 69.5726 213.082 72.7548C213.387 75.9371 213.273 83.7423 213.273 83.7423C213.273 83.7423 213.538 85.2581 215.214 84.6138C215.366 86.3193 213.577 87.4181 211.788 87.4181C209.999 87.4181 208.21 86.3576 208.21 84.1218V73.4748C208.21 73.4748 208.249 71.0118 205.317 71.0118C202.386 71.0118 202.081 73.7013 202.081 74.5353V87.3041H196.866V73.5123C196.866 73.5123 196.828 70.9736 194.126 70.9736C191.423 70.9736 190.7 73.2093 190.7 74.3081V87.1908H185.523V73.0578C185.523 73.0578 185.637 71.5046 183.315 71.4663Z" fill="white"/>
</g>
</g>
</svg>
