<svg width="319" height="42" viewBox="0 0 319 42" fill="none" xmlns="http://www.w3.org/2000/svg">
<path d="M272.529 16.6663V41.9756H280.541V25.1027H309.843V41.9756H317.855V16.6663H272.529ZM279.626 8.46107H310.53C314.879 7.65209 317.97 3.72281 318.885 0.0246582H271.27C272.186 3.72281 275.39 7.53653 279.626 8.46107ZM248.149 41.9756C252.155 40.2421 254.33 37.2373 255.246 33.7703H219.191V0.140225H211.064V41.9756H248.149ZM150.972 8.3455H179.587C183.937 7.07426 187.485 3.72281 188.401 0.140225H143.075V24.8716H180.16V33.5392H151.087C146.509 34.8104 142.617 37.9307 140.671 41.9756H188.172V16.6663H151.087L150.972 8.3455ZM80.4652 8.46107H111.369C115.719 7.65209 118.924 3.72281 119.725 0.0246582H71.9951C72.9108 3.72281 76.1157 7.53653 80.4652 8.46107ZM80.4652 24.9872H111.369C115.719 24.1782 118.924 20.2489 119.725 16.5508H71.9951C72.9108 20.2489 76.1157 24.0626 80.4652 24.9872ZM80.4652 41.9756H111.369C115.719 41.1666 118.924 37.2373 119.725 33.5392H71.9951C72.9108 37.2373 76.1157 41.1666 80.4652 41.9756Z" fill="white"/>
<path d="M0 0.140225C0.91568 3.83838 4.12056 7.53653 8.35558 8.46107H21.404L22.0908 8.6922V41.86H30.2174V8.6922L30.9042 8.46107H43.9526C48.3021 7.30539 51.3925 3.83838 52.3082 0.140225V0.0246582L0 0.140225Z" fill="white"/>
</svg>
